<?xml version="1.0" standalone="no"?>
<!DOCTYPE svg PUBLIC "-//W3C//DTD SVG 20010904//EN"
 "http://www.w3.org/TR/2001/REC-SVG-20010904/DTD/svg10.dtd">
<svg version="1.0" xmlns="http://www.w3.org/2000/svg"
 width="812.000000pt" height="736.000000pt" viewBox="0 0 812.000000 736.000000"
 preserveAspectRatio="xMidYMid meet">

<g transform="translate(0.000000,736.000000) scale(0.100000,-0.100000)"
fill="#000000" stroke="none">
<path d="M5680 6749 c0 -6 -7 -9 -15 -5 -17 6 -20 -21 -5 -44 9 -13 12 -12 25
4 17 23 20 56 5 56 -5 0 -10 -5 -10 -11z"/>
<path d="M5475 6690 c-4 -7 3 -8 22 -4 38 9 42 14 10 14 -14 0 -29 -5 -32 -10z"/>
<path d="M5357 6666 c-4 -10 -1 -13 9 -9 7 3 14 9 14 14 0 14 -17 10 -23 -5z"/>
<path d="M5290 6560 c0 -5 -7 -7 -15 -4 -9 4 -15 0 -15 -10 0 -19 9 -20 33 -2
19 15 22 26 7 26 -5 0 -10 -4 -10 -10z"/>
<path d="M4895 6520 c-16 -11 -24 -20 -17 -20 7 0 22 9 34 20 28 25 21 25 -17
0z"/>
<path d="M4908 6496 c-20 -14 -24 -36 -8 -36 6 0 10 7 10 15 0 8 6 15 14 15 8
0 18 5 21 10 9 14 -17 12 -37 -4z"/>
<path d="M5093 6493 c4 -3 2 -12 -5 -20 -6 -7 -8 -17 -4 -21 9 -9 37 28 30 39
-3 5 -10 9 -16 9 -6 0 -8 -3 -5 -7z"/>
<path d="M5159 6481 c-13 -11 -21 -23 -17 -27 5 -4 17 3 28 16 31 36 26 41
-11 11z"/>
<path d="M5378 6493 c-10 -2 -18 -9 -18 -14 0 -5 -7 -9 -15 -9 -8 0 -15 -4
-15 -10 0 -17 24 -11 55 15 29 24 28 27 -7 18z"/>
<path d="M4853 6475 c0 -8 4 -12 9 -9 4 3 8 9 8 15 0 5 -4 9 -8 9 -5 0 -9 -7
-9 -15z"/>
<path d="M4813 6463 c-10 -10 -13 -14 -6 -10 6 5 16 6 21 3 5 -3 9 1 9 9 0 19
-1 19 -24 -2z"/>
<path d="M5040 6470 c-8 -26 -7 -41 2 -32 6 6 8 16 5 24 -3 7 -6 11 -7 8z"/>
<path d="M4808 6423 c6 -2 18 -2 25 0 6 3 1 5 -13 5 -14 0 -19 -2 -12 -5z"/>
<path d="M4850 6421 c0 -5 5 -13 10 -16 6 -3 10 -2 10 4 0 5 -4 13 -10 16 -5
3 -10 2 -10 -4z"/>
<path d="M5122 6403 c1 -10 -1 -24 -5 -30 -5 -7 -5 -13 0 -13 4 0 1 -5 -7 -10
-13 -9 -13 -11 0 -20 10 -6 11 -10 3 -10 -7 0 -13 -5 -13 -11 0 -6 7 -9 15 -6
8 4 17 2 20 -3 3 -4 1 -10 -4 -12 -5 -1 -13 -16 -17 -32 -5 -21 -4 -27 5 -22
6 4 11 14 11 21 0 8 16 21 36 30 19 8 33 19 29 25 -3 5 1 10 9 10 9 0 25 9 36
20 11 11 16 20 10 20 -5 0 -9 3 -9 8 4 24 -2 34 -18 27 -37 -15 -72 -12 -76 7
-6 23 -29 24 -25 1z m58 -72 c0 -5 -7 -11 -14 -14 -10 -4 -13 -1 -9 9 6 15 23
19 23 5z"/>
<path d="M5180 6411 c0 -6 5 -13 10 -16 6 -3 10 1 10 9 0 9 -4 16 -10 16 -5 0
-10 -4 -10 -9z"/>
<path d="M5026 6393 c-6 -14 -5 -15 5 -6 7 7 10 15 7 18 -3 3 -9 -2 -12 -12z"/>
<path d="M5255 6390 c3 -5 8 -10 11 -10 2 0 4 5 4 10 0 6 -5 10 -11 10 -5 0
-7 -4 -4 -10z"/>
<path d="M4729 6383 c0 -5 -2 -16 -4 -25 -3 -19 10 -24 20 -8 3 6 1 10 -6 10
-8 0 -8 4 1 15 9 10 9 15 1 15 -6 0 -11 -3 -12 -7z"/>
<path d="M4945 6376 c-11 -6 -22 -12 -25 -14 -2 -2 2 -7 10 -12 8 -5 11 -13 6
-17 -5 -4 -11 -2 -13 5 -7 19 -31 14 -55 -10 -14 -14 -23 -18 -26 -10 -2 7 -8
12 -14 12 -6 0 -8 -6 -5 -14 9 -23 -14 -100 -36 -119 -12 -11 -17 -21 -11 -27
6 -6 21 8 39 35 34 50 40 54 48 25 3 -11 1 -20 -4 -20 -18 0 -81 -68 -69 -75
5 -3 8 -11 5 -16 -4 -5 3 -9 14 -9 10 0 22 6 24 13 4 8 6 7 6 -3 1 -9 -4 -21
-11 -28 -20 -20 2 -14 34 9 26 19 29 26 25 56 -4 19 -1 43 5 52 9 14 7 22 -11
40 -22 22 -27 46 -11 56 6 3 10 -1 10 -9 0 -23 24 -20 46 5 10 12 31 27 46 35
17 9 25 20 22 28 -8 21 -26 25 -49 12z"/>
<path d="M4820 6370 c-12 -8 -10 -10 8 -10 13 0 20 4 17 10 -7 12 -6 12 -25 0z"/>
<path d="M5015 6338 c-4 -18 -14 -41 -23 -50 -13 -16 -13 -18 0 -18 9 0 21 6
28 14 6 8 18 12 25 10 21 -8 41 6 24 17 -11 7 -11 9 1 9 9 0 16 10 17 27 l1
27 -18 -23 c-18 -25 -46 -21 -36 5 3 8 1 14 -4 14 -4 0 -12 -15 -15 -32z"/>
<path d="M4615 6290 c3 -5 8 -10 11 -10 2 0 4 5 4 10 0 6 -5 10 -11 10 -5 0
-7 -4 -4 -10z"/>
<path d="M5073 6283 c-7 -3 -13 -11 -13 -19 0 -8 -7 -14 -15 -14 -9 0 -15 -9
-15 -23 0 -13 -7 -32 -15 -43 -8 -10 -15 -26 -15 -35 0 -19 -23 -31 -44 -23
-19 7 -29 -11 -12 -25 10 -8 11 -22 6 -54 -9 -48 -4 -60 14 -34 7 9 17 17 22
17 15 0 11 54 -5 66 -12 9 -10 12 12 12 15 0 30 -4 32 -9 5 -8 76 -3 104 6 11
4 11 8 1 20 -10 12 -9 15 5 15 12 0 15 5 11 16 -5 13 0 15 34 9 35 -6 39 -5
34 10 -5 12 -14 15 -35 11 -19 -3 -31 -1 -36 9 -4 7 -20 17 -35 20 -25 6 -28
4 -28 -16 0 -18 -3 -20 -9 -10 -5 8 -16 11 -24 8 -11 -4 -14 -1 -11 8 3 8 14
17 24 20 10 3 20 18 23 33 6 31 6 31 -10 25z m-6 -129 c-3 -3 -12 -4 -19 -1
-8 3 -5 6 6 6 11 1 17 -2 13 -5z"/>
<path d="M4911 6271 c-12 -8 -12 -11 1 -25 14 -13 16 -12 16 10 0 13 -1 24 -2
24 0 0 -7 -4 -15 -9z"/>
<path d="M4971 6241 c-7 -5 -9 -11 -4 -14 6 -4 19 0 29 8 15 11 16 14 4 15 -8
0 -21 -4 -29 -9z"/>
<path d="M5270 6239 c0 -5 5 -7 10 -4 6 3 10 8 10 11 0 2 -4 4 -10 4 -5 0 -10
-5 -10 -11z"/>
<path d="M5225 6200 c-3 -5 -1 -10 4 -10 6 0 11 5 11 10 0 6 -2 10 -4 10 -3 0
-8 -4 -11 -10z"/>
<path d="M5240 6143 c0 -16 2 -16 36 2 l29 15 -32 -2 c-19 -1 -33 -8 -33 -15z"/>
<path d="M5166 6142 c-3 -2 -2 -10 1 -18 5 -14 73 -20 73 -6 0 8 -68 31 -74
24z"/>
<path d="M4695 6129 c-4 -6 -4 -13 -1 -16 8 -8 36 5 36 17 0 13 -27 13 -35 -1z"/>
<path d="M5258 6113 c7 -3 16 -2 19 1 4 3 -2 6 -13 5 -11 0 -14 -3 -6 -6z"/>
<path d="M4603 6093 c-16 -3 -23 -11 -23 -26 1 -20 2 -21 14 -4 7 9 18 17 24
17 6 0 14 5 17 10 3 6 3 9 -2 9 -4 -1 -18 -4 -30 -6z"/>
<path d="M4790 6065 c-7 -9 -11 -18 -8 -20 3 -3 11 1 18 10 7 9 11 18 8 20 -3
3 -11 -1 -18 -10z"/>
<path d="M4545 6050 c3 -5 8 -10 11 -10 2 0 4 5 4 10 0 6 -5 10 -11 10 -5 0
-7 -4 -4 -10z"/>
<path d="M4613 6045 c-18 -8 -33 -19 -33 -25 0 -14 17 -13 24 3 3 6 4 3 3 -8
-2 -15 -10 -20 -30 -20 -16 1 -27 -5 -27 -12 0 -7 -11 -13 -24 -13 -26 0 -39
-20 -30 -45 4 -9 0 -15 -8 -15 -8 0 -19 -5 -26 -12 -6 -6 -20 -13 -29 -14 -10
-1 -27 -5 -38 -9 l-20 -7 20 16 c11 8 26 20 33 26 9 8 12 7 12 -2 0 -9 3 -9
11 -1 9 9 8 16 -4 27 -14 14 -18 13 -46 -13 -17 -16 -31 -33 -31 -38 0 -6 -9
-14 -20 -19 -19 -9 -19 -9 1 -34 11 -14 18 -19 17 -11 -2 7 3 16 10 18 6 3 12
-1 12 -9 0 -8 13 -13 33 -14 18 0 42 -4 53 -8 18 -7 17 -9 -6 -18 -23 -9 -24
-11 -6 -17 11 -4 15 -10 10 -14 -12 -7 -29 3 -37 23 -4 12 -6 12 -6 -2 -1 -9
4 -20 9 -23 23 -15 6 -22 -42 -19 -28 2 -53 6 -55 8 -3 2 1 13 9 25 11 17 10
23 -4 37 -17 17 -63 11 -53 -7 4 -5 -1 -9 -9 -9 -26 0 -30 -23 -6 -42 23 -18
20 -21 -15 -19 -14 1 -9 -4 13 -15 23 -12 30 -20 23 -27 -20 -20 -13 -47 13
-47 13 0 27 -6 29 -12 3 -8 6 -6 6 5 2 37 71 79 71 42 0 -8 -6 -15 -14 -15 -7
0 -19 -7 -26 -15 -10 -12 -7 -15 14 -21 14 -3 26 -12 26 -18 0 -15 -62 -76
-78 -76 -7 0 -12 -7 -12 -15 0 -8 -6 -15 -14 -15 -8 0 -22 -7 -30 -16 -21 -20
-21 -41 -1 -24 19 15 20 0 2 -25 -10 -13 -16 -15 -21 -6 -4 6 -11 9 -16 6 -4
-3 -13 2 -20 10 -24 29 -46 17 -41 -22 1 -7 -7 -18 -18 -25 -15 -9 -17 -15 -9
-25 7 -8 7 -13 0 -13 -5 0 -13 7 -16 16 -5 13 -9 14 -21 4 -12 -10 -16 -8 -25
14 -5 14 -13 26 -18 26 -10 0 -32 -44 -32 -64 0 -8 -8 -17 -17 -21 -28 -12
-44 -14 -37 -4 3 5 -7 9 -22 9 -23 0 -26 3 -21 26 7 39 -8 15 -23 -36 -7 -25
-28 -91 -46 -148 -39 -118 -40 -133 -16 -169 9 -15 12 -24 5 -20 -6 4 -13 2
-16 -5 -2 -7 -2 -3 0 10 6 40 -14 23 -27 -23 -10 -35 -10 -48 0 -60 6 -8 10
-20 7 -27 -3 -8 -6 -4 -7 7 -1 17 -3 16 -16 -9 -10 -17 -18 -64 -20 -119 -3
-49 -9 -98 -15 -109 -6 -12 -6 -18 1 -18 5 0 10 7 10 16 0 8 5 12 10 9 6 -4 8
-15 5 -24 -3 -10 1 -24 10 -31 8 -7 15 -17 15 -22 0 -7 -5 -6 -13 0 -10 9 -13
0 -14 -43 -1 -39 2 -55 12 -55 7 0 12 -8 11 -17 -1 -15 7 -18 42 -17 29 0 42
-4 42 -13 0 -16 -32 -17 -47 -2 -12 12 -33 4 -33 -12 0 -5 7 -9 15 -9 15 0 21
-28 16 -80 l-2 -24 26 28 c16 18 32 26 42 22 10 -4 26 3 43 19 27 25 28 26 33
6 3 -12 2 -21 -2 -21 -4 0 -13 -16 -20 -36 -11 -31 -11 -37 5 -48 11 -8 14
-18 9 -26 -6 -9 -4 -11 4 -6 15 10 51 -21 52 -43 0 -10 2 -12 6 -3 2 6 12 12
22 12 9 0 26 7 37 15 10 8 27 15 37 15 22 0 22 -26 0 -34 -11 -5 -13 -10 -6
-17 7 -7 17 -7 32 3 23 14 28 38 9 38 -7 0 -3 8 8 18 12 9 26 26 32 37 6 11
16 20 24 21 7 0 25 2 40 2 20 2 26 6 22 17 -4 8 -2 15 4 15 15 0 22 -41 9 -57
-7 -9 -25 -28 -40 -44 l-28 -28 22 -11 c17 -10 23 -9 30 1 6 9 9 10 9 2 0 -6
-7 -19 -16 -27 -14 -14 -14 -17 -1 -22 9 -3 25 4 37 16 16 16 20 28 15 51 -4
16 -13 29 -21 29 -18 0 -18 8 0 26 19 19 29 18 44 -6 16 -26 39 -16 44 20 5
36 -20 60 -63 60 -28 0 -31 2 -25 25 5 19 3 23 -9 19 -20 -8 -32 25 -14 37 9
5 18 4 24 -5 6 -7 36 -16 67 -20 32 -4 60 -12 63 -17 12 -19 35 -9 35 16 0 22
-3 24 -29 19 l-30 -6 2 60 c2 42 8 66 20 80 15 17 16 23 6 40 -10 16 -20 18
-56 14 -23 -2 -43 -1 -43 2 0 4 9 31 21 59 44 109 49 122 47 137 -4 31 15 90
28 90 8 0 17 14 21 30 3 18 12 30 22 30 14 1 14 2 -1 14 -10 7 -18 18 -18 24
0 6 -7 9 -15 5 -9 -3 -22 2 -29 13 -11 15 -17 16 -29 6 -12 -10 -16 -10 -20 2
-3 8 -3 17 0 20 12 12 41 6 47 -9 6 -18 26 -20 26 -4 0 19 33 39 47 28 15 -13
29 9 14 24 -6 6 -11 21 -11 33 0 33 -20 40 -39 15 -15 -19 -20 -21 -46 -11
-50 19 -58 45 -20 60 34 13 34 45 1 36 -17 -4 -26 -1 -30 10 -9 24 -7 28 9 14
18 -15 21 1 5 31 -7 12 -7 19 -1 19 5 0 20 14 32 31 20 29 21 33 6 44 -9 7
-14 15 -10 18 3 4 -1 7 -10 7 -9 0 -17 5 -17 10 0 6 -8 10 -17 10 -16 1 -16 2
2 16 19 15 19 15 1 12 -10 -2 -21 3 -24 11 -3 10 2 12 20 8 13 -4 36 0 51 8
35 18 57 10 57 -21 0 -13 2 -24 3 -24 13 0 67 33 67 41 0 5 10 9 21 9 17 0 19
3 10 14 -10 11 -8 16 9 21 11 4 28 15 38 25 9 10 32 20 51 22 19 2 37 10 41
18 4 8 22 45 40 82 29 58 32 71 22 92 -7 17 -8 27 -1 32 6 4 6 11 -2 20 -9 11
-8 14 9 14 11 0 25 7 32 15 11 13 8 15 -14 15 -15 0 -29 7 -33 15 -7 21 6 33
16 16 5 -7 14 -10 20 -7 6 4 8 12 5 18 -8 13 14 28 44 28 26 0 29 15 6 28 -12
6 -15 19 -12 40 3 18 0 29 -6 27 -39 -12 -70 -15 -56 -6 24 16 6 22 -29 10
-24 -9 -30 -16 -26 -30 4 -12 -2 -23 -20 -35 -14 -9 -28 -14 -31 -11 -3 3 4 8
15 12 27 8 27 22 1 30 -11 3 -20 13 -20 21 0 21 -2 28 -16 42 -16 15 -21 15
-61 -3z m66 -92 c0 -25 -1 -25 -8 -8 -5 11 -7 23 -4 28 8 14 13 7 12 -20z
m131 -8 c0 -15 -6 -25 -14 -25 -11 0 -12 5 -3 25 15 31 17 31 17 0z m-180 11
c0 -3 -4 -8 -10 -11 -5 -3 -10 -1 -10 4 0 6 5 11 10 11 6 0 10 -2 10 -4z m-68
-39 c-30 -32 -16 -41 25 -16 40 25 43 10 6 -29 -16 -15 -27 -26 -26 -24 2 3
-2 11 -8 18 -9 11 -15 10 -36 -3 -21 -14 -26 -14 -34 -2 -12 20 -11 29 5 29 7
0 25 11 40 25 34 32 57 33 28 2z m123 -17 c3 -5 1 -10 -4 -10 -6 0 -11 5 -11
10 0 6 2 10 4 10 3 0 8 -4 11 -10z m-215 -56 c0 -2 -7 -4 -15 -4 -8 0 -15 4
-15 10 0 5 7 7 15 4 8 -4 15 -8 15 -10z m185 -15 c-8 -12 -35 -12 -35 0 0 11
22 20 33 14 4 -2 5 -9 2 -14z m45 -44 c0 -15 -17 -21 -76 -28 -26 -2 -31 0
-26 12 8 23 18 28 62 29 29 1 40 -2 40 -13z m-155 -4 c3 -5 1 -12 -5 -16 -5
-3 -10 1 -10 9 0 18 6 21 15 7z m15 -46 c-10 -12 -10 -15 0 -15 8 0 11 -3 7
-6 -3 -4 -13 -4 -22 0 -13 5 -14 8 -3 20 17 20 34 20 18 1z m-77 -30 c-3 -8
-9 -15 -14 -15 -10 0 -12 24 -3 33 11 11 24 -3 17 -18z m240 -39 c4 -10 1 -13
-7 -10 -7 3 -16 -2 -19 -10 -4 -9 -14 -16 -23 -16 -24 0 -11 -24 17 -30 17 -4
20 -8 10 -14 -7 -5 -23 -3 -38 5 -20 11 -26 11 -33 -1 -7 -11 -10 -7 -10 15 0
19 7 35 20 43 11 7 20 8 20 2 0 -5 7 -7 15 -4 8 4 15 12 15 20 0 18 26 18 33
0z m-183 -68 c0 -6 -6 -5 -15 2 -8 7 -15 14 -15 16 0 2 7 1 15 -2 8 -4 15 -11
15 -16z m70 -47 c0 -12 -29 -41 -41 -41 -13 0 -11 8 9 29 19 21 32 26 32 12z
m-74 -57 c-3 -9 -6 -20 -6 -25 0 -5 -4 -9 -10 -9 -5 0 -10 11 -10 25 0 16 6
25 16 25 11 0 14 -5 10 -16z m-316 -68 c0 -3 -4 -8 -10 -11 -5 -3 -10 -1 -10
4 0 6 5 11 10 11 6 0 10 -2 10 -4z m36 -44 c15 -10 14 -42 -2 -42 -15 0 -36
34 -27 44 8 8 15 7 29 -2z m174 -25 c0 -7 -9 -18 -20 -25 -23 -14 -25 -10 -8
18 14 23 28 26 28 7z m-80 -73 c0 -9 -6 -14 -12 -11 -7 2 -12 10 -10 16 1 6
-2 11 -8 11 -5 0 -10 5 -10 10 0 7 6 7 20 0 11 -6 20 -18 20 -26z m14 -129
c14 -14 12 -45 -2 -43 -19 2 -23 -4 -12 -17 7 -8 8 -15 2 -15 -5 0 -15 6 -21
14 -9 10 -8 15 4 20 19 7 20 26 0 26 -16 0 -20 12 -8 23 10 11 20 8 37 -8z
m118 -67 c-9 -9 -15 -9 -24 0 -10 10 -10 15 2 22 20 12 38 -6 22 -22z m-589
-38 c3 -13 10 -18 21 -14 19 7 21 -10 3 -28 -10 -9 -11 -19 -3 -40 7 -20 7
-31 -1 -39 -9 -9 -13 -5 -18 17 -3 16 -12 48 -19 71 -8 23 -12 44 -9 47 11 11
21 6 26 -14z m477 -35 c7 -8 9 -15 6 -15 -4 0 -14 7 -22 15 -9 8 -11 15 -6 15
5 0 15 -7 22 -15z m39 -38 c-21 -21 -59 -28 -59 -11 0 8 10 14 24 14 14 0 28
5 31 11 4 6 9 8 12 5 3 -3 -1 -11 -8 -19z m-79 -6 c17 -32 12 -48 -12 -46 -32
3 -32 3 -19 19 7 9 8 17 2 20 -5 3 -12 0 -14 -6 -4 -8 -6 -7 -6 4 -1 15 11 25
31 27 4 1 12 -8 18 -18z m130 9 c0 -5 -4 -10 -10 -10 -5 0 -10 5 -10 10 0 6 5
10 10 10 6 0 10 -4 10 -10z m10 -46 c0 -2 -12 -4 -27 -4 -21 0 -24 3 -14 9 13
8 41 5 41 -5z m-65 -24 c3 -5 1 -10 -4 -10 -6 0 -11 5 -11 10 0 6 2 10 4 10 3
0 8 -4 11 -10z m-55 -74 c0 -3 -4 -8 -10 -11 -5 -3 -10 -1 -10 4 0 6 5 11 10
11 6 0 10 -2 10 -4z m-543 -83 c-3 -10 -5 -4 -5 12 0 17 2 24 5 18 2 -7 2 -21
0 -30z m317 3 c-3 -8 -18 -14 -33 -14 -38 1 -48 -7 -48 -38 0 -51 -53 -60 -71
-12 -14 39 -8 44 60 53 26 4 48 11 48 16 0 5 11 9 25 9 17 0 23 -4 19 -14z
m-250 -31 c3 -8 1 -15 -4 -15 -6 0 -10 7 -10 15 0 8 2 15 4 15 2 0 6 -7 10
-15z m364 -7 c-6 -18 -28 -21 -28 -4 0 9 7 16 16 16 9 0 14 -5 12 -12z m22
-28 c0 -5 -2 -10 -4 -10 -3 0 -8 5 -11 10 -3 6 -1 10 4 10 6 0 11 -4 11 -10z
m-263 -76 c-3 -3 -12 -4 -19 -1 -8 3 -5 6 6 6 11 1 17 -2 13 -5z m418 -34 c-3
-5 -10 -10 -16 -10 -5 0 -9 5 -9 10 0 6 7 10 16 10 8 0 12 -4 9 -10z m-315
-31 c0 -10 7 -19 15 -19 9 0 12 -6 9 -15 -10 -26 -59 -19 -72 10 -16 35 -15
46 3 39 8 -4 15 -1 15 5 0 6 7 8 15 5 8 -4 15 -15 15 -25z m-110 -19 c-11 -20
-30 -28 -30 -12 0 11 22 32 32 32 5 0 4 -9 -2 -20z m-40 -10 c0 -11 -4 -20
-10 -20 -5 0 -10 9 -10 20 0 11 5 20 10 20 6 0 10 -9 10 -20z m-90 -40 c0 -5
-4 -10 -10 -10 -5 0 -10 5 -10 10 0 6 5 10 10 10 6 0 10 -4 10 -10z m355 -40
c3 -5 -1 -10 -9 -10 -8 0 -18 5 -21 10 -3 6 1 10 9 10 8 0 18 -4 21 -10z
m-240 -19 c-3 -6 -11 -11 -17 -11 -6 0 -6 6 2 15 14 17 26 13 15 -4z m299 -50
c-9 -9 -14 -11 -10 -5 3 7 -1 14 -9 18 -8 3 -15 1 -15 -4 0 -6 -9 -10 -20 -10
-11 0 -20 6 -20 14 0 8 -5 17 -10 19 -6 3 -5 4 2 3 7 -2 21 1 32 6 13 7 21 6
27 -3 6 -10 10 -9 15 5 7 18 8 17 16 -4 6 -17 4 -28 -8 -39z m-139 19 c13 -6
15 -9 5 -9 -8 0 -22 4 -30 9 -18 12 -2 12 25 0z m-58 -11 c-9 -6 -15 -14 -12
-20 10 -15 -11 -10 -24 5 -10 11 -8 15 6 19 35 9 49 7 30 -4z m173 -29 c0 -5
-2 -10 -4 -10 -3 0 -8 5 -11 10 -3 6 -1 10 4 10 6 0 11 -4 11 -10z"/>
<path d="M4505 6040 c4 -6 11 -8 16 -5 14 9 11 15 -7 15 -8 0 -12 -5 -9 -10z"/>
<path d="M4311 6017 c-13 -21 -12 -21 5 -5 10 10 16 20 13 22 -3 3 -11 -5 -18
-17z"/>
<path d="M4980 5960 c13 -8 12 -10 -2 -10 -18 0 -23 -11 -12 -23 8 -7 34 17
34 32 0 6 -8 11 -17 11 -15 0 -16 -2 -3 -10z"/>
<path d="M4865 5850 c-3 -5 1 -10 10 -10 9 0 13 5 10 10 -3 6 -8 10 -10 10 -2
0 -7 -4 -10 -10z"/>
<path d="M4255 5810 c-3 -5 -2 -10 4 -10 5 0 13 5 16 10 3 6 2 10 -4 10 -5 0
-13 -4 -16 -10z"/>
<path d="M4120 5755 c-19 -36 -8 -40 12 -4 9 16 14 29 9 29 -4 0 -14 -11 -21
-25z"/>
<path d="M1110 5725 c0 -8 5 -15 10 -15 6 0 10 7 10 15 0 8 -4 15 -10 15 -5 0
-10 -7 -10 -15z"/>
<path d="M4201 5724 c0 -11 3 -14 6 -6 3 7 2 16 -1 19 -3 4 -6 -2 -5 -13z"/>
<path d="M4130 5720 c0 -5 5 -10 11 -10 5 0 7 5 4 10 -3 6 -8 10 -11 10 -2 0
-4 -4 -4 -10z"/>
<path d="M965 5670 c4 -6 11 -8 16 -5 14 9 11 15 -7 15 -8 0 -12 -5 -9 -10z"/>
<path d="M1045 5649 c-12 -19 5 -23 22 -6 16 16 16 17 1 17 -9 0 -20 -5 -23
-11z"/>
<path d="M4220 5612 c0 -10 -5 -23 -12 -30 -15 -15 -4 -26 17 -19 8 4 15 16
15 27 0 11 5 20 11 20 5 0 7 5 4 10 -10 17 -35 11 -35 -8z"/>
<path d="M4278 5623 c7 -3 16 -2 19 1 4 3 -2 6 -13 5 -11 0 -14 -3 -6 -6z"/>
<path d="M1040 5582 c0 -5 7 -15 15 -22 8 -7 15 -8 15 -2 0 5 -7 15 -15 22 -8
7 -15 8 -15 2z"/>
<path d="M4225 5550 c-9 -15 -1 -23 21 -18 15 3 16 4 1 16 -11 9 -17 10 -22 2z"/>
<path d="M4695 5520 c-3 -5 -1 -10 4 -10 6 0 11 5 11 10 0 6 -2 10 -4 10 -3 0
-8 -4 -11 -10z"/>
<path d="M4240 5500 c-9 -6 -10 -10 -3 -10 6 0 15 5 18 10 8 12 4 12 -15 0z"/>
<path d="M940 5476 c0 -9 5 -16 10 -16 6 0 10 4 10 9 0 6 -4 13 -10 16 -5 3
-10 -1 -10 -9z"/>
<path d="M4452 5468 c-7 -7 -12 -16 -12 -21 0 -5 7 -1 16 8 9 9 14 18 12 20
-2 3 -10 -1 -16 -7z"/>
<path d="M4613 5463 c-3 -7 -14 -13 -24 -13 -11 0 -29 -9 -41 -20 -12 -11 -30
-20 -40 -20 -10 0 -18 -4 -18 -10 0 -5 5 -10 10 -10 6 0 10 -11 10 -24 0 -14
-4 -28 -10 -31 -5 -3 -10 -11 -10 -16 0 -12 61 -39 72 -33 5 3 8 0 8 -5 0 -6
-4 -11 -9 -11 -7 0 -8 -13 -2 -55 2 -19 32 23 32 46 -1 60 -1 59 -32 54 -28
-5 -29 -4 -18 17 7 13 17 27 23 31 7 5 6 7 -4 6 -29 -3 -40 1 -40 16 0 18 26
20 33 3 3 -8 6 -5 6 5 2 34 44 62 54 35 3 -10 8 -10 21 1 14 12 18 12 30 -4 8
-12 15 -14 20 -7 3 6 -1 15 -10 20 -20 11 -10 34 11 25 8 -3 15 0 15 6 0 16
-81 11 -87 -6z"/>
<path d="M4143 5433 c-7 -2 -13 -11 -13 -19 0 -12 4 -12 20 -2 31 20 26 35 -7
21z"/>
<path d="M4111 5414 c0 -11 3 -14 6 -6 3 7 2 16 -1 19 -3 4 -6 -2 -5 -13z"/>
<path d="M4450 5410 c0 -5 5 -10 10 -10 6 0 10 5 10 10 0 6 -4 10 -10 10 -5 0
-10 -4 -10 -10z"/>
<path d="M970 5400 c0 -5 11 -10 25 -10 14 0 25 5 25 10 0 6 -11 10 -25 10
-14 0 -25 -4 -25 -10z"/>
<path d="M1550 5400 c-11 -7 -7 -10 17 -10 17 0 35 5 38 10 8 13 -35 13 -55 0z"/>
<path d="M1190 5383 c0 -47 11 -59 51 -60 21 -1 39 2 39 8 0 5 -11 9 -25 9
-20 0 -27 6 -31 30 -7 32 -34 42 -34 13z"/>
<path d="M1031 5371 c-18 -11 -7 -41 15 -41 11 0 15 -6 11 -19 -5 -22 25 -35
42 -18 13 13 -4 37 -26 37 -11 0 -13 7 -9 25 7 26 -6 33 -33 16z"/>
<path d="M4470 5365 c0 -8 5 -15 10 -15 6 0 10 7 10 15 0 8 -4 15 -10 15 -5 0
-10 -7 -10 -15z"/>
<path d="M4625 5340 c-3 -5 1 -10 9 -10 8 0 18 5 21 10 3 6 -1 10 -9 10 -8 0
-18 -4 -21 -10z"/>
<path d="M990 5330 c0 -5 7 -10 15 -10 8 0 15 5 15 10 0 6 -7 10 -15 10 -8 0
-15 -4 -15 -10z"/>
<path d="M1474 5309 c-7 -12 42 -67 51 -57 11 11 -8 39 -22 33 -12 -4 -14 0
-10 15 5 21 -7 27 -19 9z"/>
<path d="M1130 5290 c12 -23 35 -22 35 1 0 8 -10 15 -23 17 -21 3 -22 1 -12
-18z"/>
<path d="M1330 5301 c0 -5 14 -14 31 -20 44 -15 46 -14 21 9 -22 21 -52 27
-52 11z"/>
<path d="M4615 5300 c-3 -5 -1 -10 6 -10 8 0 8 -4 -1 -15 -7 -8 -8 -15 -3 -15
5 0 15 11 21 25 9 20 9 25 -3 25 -7 0 -17 -4 -20 -10z"/>
<path d="M1686 5285 c4 -8 10 -15 15 -15 4 0 6 7 3 15 -4 8 -10 15 -15 15 -4
0 -6 -7 -3 -15z"/>
<path d="M4425 5290 c-8 -12 3 -50 15 -50 10 0 18 31 13 48 -6 15 -19 16 -28
2z"/>
<path d="M4475 5280 c3 -5 8 -10 11 -10 2 0 4 5 4 10 0 6 -5 10 -11 10 -5 0
-7 -4 -4 -10z"/>
<path d="M1320 5270 c0 -5 5 -10 11 -10 5 0 7 5 4 10 -3 6 -8 10 -11 10 -2 0
-4 -4 -4 -10z"/>
<path d="M4502 5268 c2 -8 -4 -12 -14 -10 -13 2 -18 -4 -18 -22 0 -13 -11 -34
-25 -47 -30 -29 -31 -39 -7 -39 25 0 54 33 47 53 -4 8 -2 18 3 21 5 3 12 -4
16 -16 7 -31 23 -12 28 32 2 27 -1 35 -15 38 -11 2 -16 -2 -15 -10z"/>
<path d="M982 5239 c2 -6 8 -10 13 -10 5 0 11 4 13 10 2 6 -4 11 -13 11 -9 0
-15 -5 -13 -11z"/>
<path d="M1625 5240 c3 -5 8 -10 11 -10 2 0 4 5 4 10 0 6 -5 10 -11 10 -5 0
-7 -4 -4 -10z"/>
<path d="M2721 5236 c-7 -8 -8 -17 -3 -20 6 -3 12 3 15 14 6 24 4 25 -12 6z"/>
<path d="M1684 5222 c3 -5 -9 -9 -27 -9 -18 0 -43 -2 -57 -3 -14 -1 -35 1 -47
5 -31 10 -31 -17 0 -34 18 -10 29 -9 57 2 31 14 35 13 50 -6 16 -19 17 -19 43
-2 22 14 30 15 42 5 8 -7 15 -19 15 -26 0 -8 4 -14 8 -14 15 0 12 56 -4 76
-13 16 -15 16 -10 2 7 -22 -1 -23 -20 -3 -16 15 -59 21 -50 7z"/>
<path d="M2767 5203 c4 -11 2 -14 -5 -9 -7 4 -12 3 -12 -2 0 -17 13 -21 26 -7
18 17 18 22 0 28 -11 4 -13 1 -9 -10z"/>
<path d="M1000 5201 c0 -16 49 -26 63 -12 8 8 6 11 -10 11 -12 0 -28 3 -37 6
-9 3 -16 1 -16 -5z"/>
<path d="M1400 5194 c1 -16 29 -46 40 -42 6 2 0 14 -14 27 -14 14 -26 20 -26
15z"/>
<path d="M4530 5190 c0 -5 7 -10 15 -10 8 0 15 5 15 10 0 6 -7 10 -15 10 -8 0
-15 -4 -15 -10z"/>
<path d="M2786 5172 c-4 -6 4 -20 16 -31 13 -13 17 -21 9 -21 -9 0 -12 -9 -9
-25 3 -14 1 -25 -4 -25 -33 0 -66 -83 -43 -107 8 -8 15 -10 15 -4 0 6 7 11 16
11 9 0 14 -7 12 -17 -2 -11 -13 -18 -27 -18 -18 0 -25 -6 -26 -23 -1 -12 2
-22 7 -22 4 0 8 8 8 18 0 14 2 14 9 3 11 -16 -10 -41 -37 -46 -9 -1 -16 -8
-14 -14 1 -6 -4 -11 -12 -11 -8 0 -16 -16 -20 -40 -5 -32 -2 -44 14 -60 11
-11 20 -16 20 -12 0 5 16 17 35 28 19 10 35 22 35 27 0 4 4 6 8 3 4 -2 9 6 10
19 1 13 -3 27 -8 30 -6 3 -10 15 -10 26 0 14 9 21 29 25 20 4 28 11 24 20 -3
8 -11 14 -19 14 -8 0 -14 4 -14 10 0 11 41 35 53 32 5 -1 6 6 3 16 -9 28 18
48 47 34 21 -11 21 -11 -5 -6 -22 5 -26 2 -24 -13 2 -10 9 -18 17 -18 8 0 19
-5 24 -11 6 -7 23 -20 40 -30 l30 -19 -24 40 c-13 22 -34 51 -46 65 -12 14
-29 36 -38 50 -10 13 -17 19 -17 12 0 -6 -4 -12 -9 -12 -5 0 -8 12 -8 26 0 29
-56 93 -67 76z m48 -178 c9 -23 8 -24 -14 -24 -19 0 -27 20 -13 33 11 11 20 8
27 -9z m-124 -208 c0 -3 -4 -8 -10 -11 -5 -3 -10 -1 -10 4 0 6 5 11 10 11 6 0
10 -2 10 -4z"/>
<path d="M1154 5158 c-3 -4 5 -8 18 -8 13 0 28 -4 34 -9 5 -5 20 -11 34 -14
l25 -4 -23 -8 c-24 -8 -26 -24 -7 -67 5 -13 0 -21 -19 -29 -19 -9 -23 -15 -15
-25 7 -9 7 -19 0 -33 -10 -18 -8 -20 26 -18 20 2 38 8 41 15 5 16 41 15 76 -3
16 -9 38 -13 48 -9 14 4 21 0 25 -15 3 -12 9 -21 14 -21 5 0 9 -3 9 -7 0 -5
-17 -8 -38 -8 -28 1 -36 4 -34 16 2 12 -9 18 -40 22 -48 6 -56 3 -40 -16 14
-17 -11 -57 -36 -57 -24 1 -57 28 -57 47 0 21 -28 38 -49 30 -13 -5 -16 -14
-11 -36 5 -24 2 -29 -16 -34 -20 -5 -20 -7 -6 -21 22 -23 51 -21 45 2 -5 16
-2 17 18 8 21 -10 21 -12 7 -28 -22 -25 2 -68 52 -93 31 -15 40 -25 37 -41 -4
-25 -29 -32 -87 -23 -22 3 -34 7 -26 8 11 1 10 5 -5 16 -28 21 -49 18 -62 -10
-6 -14 -18 -25 -26 -25 -8 0 -21 -7 -30 -15 -8 -9 -17 -11 -21 -6 -3 6 4 15
15 21 23 12 23 32 -1 36 -7 2 -23 5 -35 8 -17 3 -20 0 -17 -19 3 -12 0 -26 -7
-30 -14 -8 5 -35 25 -35 8 0 15 -6 18 -12 3 -9 10 -7 21 7 8 11 16 15 16 8 0
-7 4 -13 10 -13 5 0 7 7 4 15 -4 8 -1 15 5 15 6 0 11 -4 11 -9 0 -5 16 -5 37
-1 29 7 39 5 49 -8 10 -14 9 -21 -6 -37 -10 -11 -20 -29 -22 -39 -5 -30 -26
-31 -34 -2 -3 14 -10 24 -14 21 -4 -3 -10 2 -14 10 -12 31 -26 13 -26 -32 0
-34 -3 -44 -10 -33 -8 13 -11 13 -22 1 -10 -11 -10 -14 0 -18 6 -3 12 -12 12
-21 0 -15 2 -15 10 -2 8 12 10 12 10 1 0 -11 3 -11 15 -1 11 10 15 10 15 0 0
-6 6 -10 13 -7 6 2 11 11 9 18 -3 12 -1 12 10 1 11 -11 10 -16 -5 -26 -11 -9
-15 -20 -10 -31 5 -15 3 -17 -11 -12 -14 6 -17 2 -14 -16 2 -16 11 -23 30 -25
15 -2 33 -11 40 -21 8 -11 29 -18 58 -20 25 -1 49 -7 54 -12 6 -5 18 -9 28 -9
13 0 18 -8 18 -25 0 -20 6 -27 29 -31 17 -4 31 -14 34 -25 4 -15 1 -17 -26
-12 -25 5 -29 3 -24 -10 8 -22 -20 -49 -44 -42 -13 4 -19 2 -19 -9 0 -10 -6
-13 -15 -10 -18 7 -19 3 -3 -31 9 -21 17 -25 35 -20 12 3 32 0 42 -7 25 -15
38 -4 21 17 -10 12 -10 18 0 30 11 14 7 19 -12 16 -17 -2 -7 19 13 30 16 8 28
8 46 0 13 -6 32 -11 43 -11 18 0 17 1 -2 41 -10 22 -18 42 -16 44 2 1 13 7 24
13 19 10 25 7 50 -26 32 -42 43 -52 63 -52 9 0 11 7 7 25 -6 22 -3 25 20 25
18 0 28 -6 31 -20 5 -20 6 -20 25 -4 12 12 22 14 29 7 14 -14 0 -43 -28 -54
-13 -5 -22 -13 -18 -18 3 -5 1 -12 -4 -16 -6 -3 -8 -12 -5 -19 3 -8 2 -16 -3
-19 -14 -8 -53 12 -53 27 0 18 -49 58 -61 50 -5 -3 -5 -13 1 -24 7 -13 6 -20
-3 -23 -7 -3 -4 -6 6 -6 10 -1 16 -5 13 -10 -10 -15 -96 -10 -96 6 0 7 5 13
10 13 6 0 10 5 10 11 0 6 -6 9 -14 6 -8 -3 -16 -1 -18 5 -3 7 -12 9 -24 4 -18
-7 -18 -8 -1 -20 22 -17 23 -56 0 -56 -13 0 -14 -3 -5 -12 17 -17 15 -31 -4
-24 -15 6 -15 4 -3 -10 8 -10 15 -12 17 -5 6 19 24 12 18 -6 -6 -21 70 -100
146 -151 53 -36 60 -38 52 -17 -5 11 -2 13 12 8 13 -5 15 -3 9 7 -5 9 -4 11 3
6 7 -4 12 -13 12 -20 0 -8 9 -16 19 -19 17 -4 18 -2 10 20 -8 22 -7 24 12 18
15 -5 19 -4 14 5 -5 8 -1 11 10 8 23 -4 32 -28 12 -28 -20 0 -29 -27 -12 -34
14 -5 15 -22 3 -42 -5 -7 1 -10 17 -6 15 2 25 0 25 -7 0 -6 5 -11 11 -11 6 0
9 12 7 28 -4 34 22 37 37 5 5 -13 13 -23 17 -23 5 0 8 -11 8 -24 0 -32 20 -44
35 -22 7 9 18 15 25 14 7 -2 15 3 17 10 3 7 -4 12 -18 12 -22 0 -22 0 -3 15
25 19 34 19 34 0 0 -13 19 -19 58 -18 8 1 10 -6 7 -18 -7 -20 2 -23 58 -19 20
1 27 -3 27 -16 0 -14 3 -15 12 -6 17 17 31 15 24 -3 -3 -8 0 -27 6 -41 10 -21
9 -27 -3 -35 -11 -7 -9 -9 8 -9 12 0 25 -5 29 -11 4 -8 9 -7 15 2 7 11 9 10 9
-4 0 -26 41 -39 62 -20 9 8 37 16 62 17 26 0 46 4 46 8 0 5 -7 8 -15 8 -8 0
-15 7 -15 15 0 8 -6 15 -14 15 -16 0 -29 27 -20 41 8 14 24 11 24 -6 0 -8 7
-15 15 -15 22 0 18 24 -9 57 -24 29 -44 103 -28 103 6 0 9 6 8 14 0 8 4 15 9
15 6 0 9 -7 9 -15 -1 -8 5 -14 13 -14 8 0 13 8 11 18 -2 11 4 17 17 17 11 1
26 4 33 9 7 4 19 1 28 -8 8 -9 20 -16 25 -16 5 0 9 -18 9 -40 0 -31 -4 -40
-17 -41 -10 0 -13 -3 -6 -5 7 -3 9 -12 6 -20 -6 -17 8 -18 26 -1 12 10 13 8 6
-8 -20 -55 -24 -79 -14 -91 11 -14 -12 -100 -24 -87 -4 3 -7 -7 -7 -24 0 -28
5 -33 47 -47 26 -9 59 -16 75 -16 26 0 27 2 17 26 -9 27 -9 27 15 10 24 -15
72 -23 51 -8 -5 4 -10 19 -10 34 -1 21 2 24 12 16 7 -6 13 -19 13 -29 0 -20
34 -27 45 -9 3 5 12 7 20 3 10 -3 15 1 15 11 0 11 -7 16 -17 14 -12 -2 -19 4
-21 20 -2 12 -10 22 -18 22 -8 0 -14 8 -14 18 0 9 -14 32 -31 50 -27 28 -29
36 -18 47 8 7 29 16 47 20 28 6 32 4 32 -15 0 -13 4 -18 11 -15 6 4 17 -2 25
-14 17 -24 49 -29 40 -6 -3 8 -2 14 2 13 4 -1 19 2 35 7 21 5 25 10 17 20 -11
14 -3 45 11 45 5 0 14 -11 19 -25 5 -14 14 -25 20 -25 15 0 12 16 -5 30 -9 7
-13 20 -10 29 5 15 -9 36 -65 101 -18 20 -49 28 -67 17 -6 -4 -14 -3 -18 3 -3
5 -1 10 4 10 6 0 11 10 11 21 0 20 -1 20 -24 6 -13 -9 -27 -13 -31 -9 -4 4
-25 7 -47 7 -26 0 -43 5 -46 14 -3 10 2 12 21 7 26 -6 46 7 27 19 -8 5 -7 11
1 21 10 13 15 12 34 -6 20 -19 23 -19 35 -5 11 13 10 14 -4 9 -9 -3 -16 -1
-16 5 0 6 -7 11 -16 11 -14 0 -14 3 -4 15 11 13 9 14 -15 1 -16 -8 -33 -12
-39 -8 -6 4 -1 8 12 10 12 2 20 8 16 13 -3 5 -10 7 -15 4 -5 -4 -9 1 -9 10 0
13 4 14 21 5 11 -7 23 -9 26 -6 3 3 -2 8 -11 12 -9 4 -24 20 -32 37 -11 21
-18 26 -24 17 -8 -13 -25 41 -22 70 1 10 -1 11 -4 3 -10 -22 -26 -14 -20 10 3
12 3 16 0 10 -3 -7 -12 -13 -20 -13 -11 0 -12 -4 -5 -19 6 -10 7 -21 3 -25 -3
-4 1 -4 11 0 20 7 23 -9 4 -24 -9 -8 -19 -5 -37 9 -17 14 -21 22 -12 26 6 2
12 12 12 21 0 13 -2 14 -9 3 -7 -10 -13 -11 -30 -1 -18 9 -20 14 -10 26 9 11
14 12 20 3 12 -20 36 -19 56 4 10 11 12 17 6 13 -8 -4 -13 -1 -13 9 0 9 -4 14
-9 10 -5 -3 -12 -1 -16 5 -9 15 -35 12 -35 -4 0 -8 -5 -18 -11 -22 -8 -5 -10
6 -8 33 4 36 2 39 -16 36 -18 -4 -17 -2 6 19 19 18 24 29 18 44 -11 26 -51 75
-43 52 4 -13 -1 -20 -17 -27 -29 -10 -40 -6 -32 14 3 9 -1 15 -9 15 -9 0 -15
11 -16 28 0 15 -3 36 -6 47 -2 11 -5 31 -6 45 -1 24 -1 24 -15 6 -11 -15 -17
-16 -28 -7 -8 6 -23 8 -32 4 -12 -4 -16 -3 -12 4 4 7 -8 21 -28 33 -34 21 -46
40 -25 40 6 0 10 7 10 15 0 8 7 15 15 15 17 0 20 16 6 24 -19 12 -42 -6 -36
-28 2 -11 2 -15 -1 -8 -3 6 -15 12 -26 12 -16 0 -19 -5 -14 -24 6 -26 -12 -40
-38 -30 -9 4 -16 -2 -18 -16 -2 -11 -7 -21 -13 -20 -11 0 -14 60 -3 66 4 3 -7
20 -25 39 -33 35 -60 33 -50 -5 6 -22 -7 -26 -25 -8 -14 14 -28 3 -34 -26 -1
-11 -9 -21 -16 -24 -11 -3 -12 0 -3 16 6 11 11 31 10 44 0 13 1 30 2 38 5 33
-2 49 -23 52 -13 2 -24 11 -26 23 -3 11 -13 28 -23 38 -20 19 -26 32 -9 22 6
-3 10 2 10 12 0 10 -14 26 -32 36 -29 17 -30 19 -15 34 15 15 19 14 52 -15 36
-32 51 -40 40 -22 -4 6 -1 18 6 26 16 20 3 31 -20 17 -17 -10 -19 -8 -25 27
-3 21 -13 40 -21 44 -16 6 -20 33 -9 60 10 27 27 18 20 -10 -5 -17 -3 -23 4
-19 5 3 10 14 10 24 0 9 8 26 18 37 22 23 18 52 -4 33 -12 -10 -13 -9 -8 6 5
13 4 16 -4 11 -7 -4 -12 -2 -12 3 0 20 -19 11 -50 -23 -23 -25 -37 -32 -55
-28 -14 2 -25 8 -25 13 0 5 -7 9 -15 9 -11 0 -13 -8 -9 -32 6 -31 6 -32 -9
-13 -10 12 -14 29 -10 44 5 21 3 23 -13 17 -10 -4 -27 -9 -36 -11 -10 -2 -25
-8 -34 -13 -14 -8 -12 -10 10 -16 42 -10 30 -24 -16 -19 l-43 5 25 -28 c14
-15 31 -34 38 -42 17 -19 13 -22 -37 -24 -42 -1 -80 19 -53 29 23 9 12 23 -13
17 -15 -4 -25 -2 -25 5 0 6 -9 11 -19 11 -35 0 -51 12 -51 36 0 13 5 24 10 24
6 0 10 7 10 15 0 18 14 19 41 5 14 -8 18 -17 13 -34 -7 -29 3 -35 36 -25 18 5
20 7 7 8 -10 1 -17 7 -14 14 2 6 11 11 21 9 26 -5 19 15 -15 38 -22 16 -39 21
-60 16 -21 -4 -31 -1 -35 9 -4 8 -12 15 -18 15 -7 0 -18 6 -24 13 -15 14 -170
19 -178 5z m185 -58 c3 -25 3 -25 -18 -6 -26 23 -27 39 -3 34 9 -2 19 -14 21
-28z m291 -70 c0 -5 -5 -10 -11 -10 -5 0 -7 5 -4 10 3 6 8 10 11 10 2 0 4 -4
4 -10z m70 -40 c24 -15 7 -19 -20 -5 -15 8 -19 14 -10 14 8 1 22 -3 30 -9z
m-25 -50 c3 -5 -1 -10 -10 -10 -9 0 -13 5 -10 10 3 6 8 10 10 10 2 0 7 -4 10
-10z m-57 -18 c2 -7 -3 -12 -12 -12 -9 0 -16 7 -16 16 0 17 22 14 28 -4z m82
-22 c0 -5 -9 -10 -20 -10 -11 0 -20 5 -20 10 0 6 9 10 20 10 11 0 20 -4 20
-10z m-288 -45 c0 -5 -5 -11 -11 -13 -6 -2 -11 4 -11 13 0 9 5 15 11 13 6 -2
11 -8 11 -13z m154 -22 c14 -5 18 -31 8 -56 -4 -12 -11 -12 -47 0 -43 14 -67
36 -67 61 0 11 10 13 46 7 26 -3 53 -9 60 -12z m179 -3 c3 -5 -1 -10 -9 -10
-8 0 -18 5 -21 10 -3 6 1 10 9 10 8 0 18 -4 21 -10z m-374 -49 c5 -13 7 -32 4
-41 -8 -24 10 -34 35 -20 14 8 20 8 20 0 0 -17 -21 -54 -36 -63 -22 -13 -16
-26 14 -33 15 -4 35 -14 45 -22 16 -14 19 -14 27 -2 5 8 20 15 32 15 13 0 22
5 21 13 -2 6 4 12 12 12 25 0 17 -27 -10 -34 -14 -4 -25 -10 -25 -15 0 -5 9
-7 20 -4 12 3 20 0 20 -7 0 -6 -10 -11 -22 -10 -13 1 -30 2 -38 1 -13 -1 -13
-2 0 -11 12 -7 12 -12 2 -22 -9 -9 -12 -9 -12 4 0 9 -7 24 -16 33 -16 15 -18
15 -33 0 -15 -15 -14 -18 8 -36 l23 -19 -31 0 c-28 0 -31 3 -25 24 4 18 1 25
-18 31 -19 6 -20 8 -5 12 26 7 20 18 -18 32 -40 14 -43 21 -15 39 26 16 25 36
-2 55 -20 14 -21 18 -8 26 11 8 12 13 3 22 -8 8 -17 7 -36 -6 -37 -24 -48 1
-14 31 34 29 66 27 78 -5z m329 15 c33 -1 92 -34 87 -49 -2 -6 -18 -19 -35
-29 -32 -17 -32 -17 -62 12 -20 19 -28 35 -23 46 5 15 1 16 -30 10 -30 -6 -37
-4 -37 9 0 13 7 15 38 9 20 -4 48 -8 62 -8z m-698 -134 c-7 -2 -12 -11 -12
-19 0 -9 -3 -14 -6 -10 -10 10 7 48 19 40 8 -5 8 -8 -1 -11z m511 11 c-7 -2
-19 -2 -25 0 -7 3 -2 5 12 5 14 0 19 -2 13 -5z m-386 -19 c-3 -3 -12 -4 -19
-1 -8 3 -5 6 6 6 11 1 17 -2 13 -5z m531 -12 c3 -9 -3 -13 -19 -10 -12 1 -24
9 -27 16 -3 9 3 13 19 10 12 -1 24 -9 27 -16z m-422 -45 c3 -9 17 -12 37 -10
29 4 30 3 12 -8 -30 -18 -30 -18 -6 -35 15 -11 21 -23 18 -36 -3 -11 0 -21 8
-24 11 -4 10 -11 -3 -34 -10 -18 -21 -26 -32 -22 -12 5 -13 3 -2 -10 7 -9 22
-13 36 -11 13 3 27 0 30 -6 10 -16 26 -13 26 4 0 17 42 18 77 2 18 -8 27 -6
43 8 19 18 20 18 20 -3 0 -12 -6 -25 -14 -29 -7 -4 -21 -23 -30 -40 -10 -21
-24 -33 -37 -33 -11 0 -29 -5 -40 -10 -13 -7 -25 -8 -37 -1 -15 8 -14 11 11
20 15 6 27 15 27 21 0 5 7 10 15 10 17 0 21 35 5 45 -6 4 -9 1 -8 -7 4 -17
-90 -22 -109 -6 -7 6 -17 7 -21 3 -4 -4 -1 -10 6 -12 22 -8 13 -21 -18 -25
-16 -3 -30 -1 -30 4 0 4 6 8 13 8 6 0 3 7 -8 16 -11 8 -29 14 -40 13 -57 -4
-65 0 -63 31 3 35 28 41 28 7 0 -30 5 -35 33 -30 20 4 22 10 20 56 -3 50 -23
84 -44 71 -5 -3 -9 4 -9 16 0 21 1 21 30 4 16 -10 32 -30 35 -45 6 -25 55 -60
55 -39 0 6 -6 10 -13 10 -8 0 -14 6 -15 13 -8 58 -16 88 -23 93 -12 7 -11 34
1 34 6 0 13 -6 16 -13z m374 -16 c0 -14 -5 -18 -20 -14 -21 5 -25 15 -13 26
13 14 33 6 33 -12z m70 -22 c0 -24 -23 -21 -28 4 -2 10 3 17 12 17 10 0 16 -9
16 -21z m235 11 c3 -5 -1 -10 -9 -10 -9 0 -16 5 -16 10 0 6 4 10 9 10 6 0 13
-4 16 -10z m-585 -10 c0 -5 -4 -10 -10 -10 -5 0 -10 5 -10 10 0 6 5 10 10 10
6 0 10 -4 10 -10z m35 -38 c-6 -5 -21 -6 -35 -1 -24 7 -24 7 -2 8 12 1 22 6
22 13 0 9 3 9 12 0 7 -7 8 -15 3 -20z m-272 -2 c3 -11 1 -20 -4 -20 -5 0 -9 9
-9 20 0 11 2 20 4 20 2 0 6 -9 9 -20z m932 -29 c-3 -6 -11 -11 -16 -11 -5 0
-4 6 3 14 14 16 24 13 13 -3z m-839 -18 c-10 -10 -19 5 -10 18 6 11 8 11 12 0
2 -7 1 -15 -2 -18z m260 -9 c-4 -9 -9 -15 -11 -12 -3 3 -3 13 1 22 4 9 9 15
11 12 3 -3 3 -13 -1 -22z m354 16 c0 -5 -6 -10 -14 -10 -8 0 -18 5 -21 10 -3
6 3 10 14 10 12 0 21 -4 21 -10z m180 0 c8 -5 13 -10 10 -11 -3 0 -13 -2 -22
-4 -10 -2 -18 3 -18 11 0 16 9 18 30 4z m-610 -31 c0 -5 -4 -9 -10 -9 -5 0
-10 7 -10 16 0 8 5 12 10 9 6 -3 10 -10 10 -16z m845 1 c8 -13 -5 -13 -25 0
-13 8 -13 10 2 10 9 0 20 -4 23 -10z m-160 -29 c7 -12 -12 -24 -25 -16 -11 7
-4 25 10 25 5 0 11 -4 15 -9z m130 0 c3 -5 1 -12 -5 -16 -5 -3 -10 1 -10 9 0
18 6 21 15 7z m59 -6 c-7 -16 -24 -21 -24 -6 0 8 7 13 27 20 1 1 0 -6 -3 -14z
m-674 -5 c0 -5 -2 -10 -4 -10 -3 0 -8 5 -11 10 -3 6 -1 10 4 10 6 0 11 -4 11
-10z m544 4 c18 -7 10 -34 -10 -34 -8 0 -14 9 -14 20 0 22 1 23 24 14z m-154
-19 c0 -9 -6 -12 -16 -8 -13 5 -13 7 -2 14 17 11 18 11 18 -6z m-410 -25 c0
-5 -7 -10 -15 -10 -8 0 -15 5 -15 10 0 6 7 10 15 10 8 0 15 -4 15 -10z m597
-22 c-3 -8 -6 -5 -6 6 -1 11 2 17 5 13 3 -3 4 -12 1 -19z m-847 -18 c0 -5 -2
-10 -4 -10 -3 0 -8 5 -11 10 -3 6 -1 10 4 10 6 0 11 -4 11 -10z m288 -8 c2 -7
-2 -10 -12 -6 -9 3 -16 11 -16 16 0 13 23 5 28 -10z m559 2 c-3 -3 -12 -4 -19
-1 -8 3 -5 6 6 6 11 1 17 -2 13 -5z m-269 -38 c2 -2 -1 -13 -7 -24 -13 -24 3
-42 36 -42 13 0 23 -5 23 -10 0 -6 10 -15 23 -20 14 -5 16 -9 6 -9 -9 -1 -22
-12 -29 -26 -7 -14 -18 -25 -23 -25 -14 0 -62 40 -63 53 -1 7 -2 20 -3 29 -1
11 -6 15 -16 12 -8 -4 -15 -1 -15 6 0 7 -5 6 -15 -4 -19 -19 -19 -34 0 -38 24
-5 2 -27 -35 -35 -31 -6 -33 -5 -22 9 10 13 10 17 -2 21 -7 3 -18 1 -24 -5
-13 -13 -32 -2 -32 21 0 27 21 41 61 41 45 0 71 9 63 22 -3 5 -3 16 0 25 5 11
14 14 38 9 17 -3 33 -8 36 -10z m-183 -6 c-3 -5 -10 -10 -16 -10 -5 0 -9 5 -9
10 0 6 7 10 16 10 8 0 12 -4 9 -10z m-320 -10 c3 -5 2 -10 -4 -10 -5 0 -13 5
-16 10 -3 6 -2 10 4 10 5 0 13 -4 16 -10z m950 -43 c-17 -41 -7 -54 27 -37 22
11 22 10 4 -4 -21 -17 -55 -22 -57 -8 -7 78 -7 81 15 84 29 5 28 6 11 -35z
m-217 -45 c21 -16 22 -20 8 -31 -9 -8 -16 -20 -16 -28 0 -28 -35 -9 -36 20 -1
15 -8 35 -18 45 -9 10 -16 26 -16 36 0 18 6 15 78 -42z m-78 -2 c0 -5 -10 -10
-22 -9 -22 0 -22 1 -3 9 11 5 21 9 23 9 1 1 2 -3 2 -9z m105 -80 c3 -5 1 -10
-4 -10 -6 0 -11 5 -11 10 0 6 2 10 4 10 3 0 8 -4 11 -10z m-355 -31 c0 -35
-23 -36 -28 -1 -2 13 -8 19 -14 16 -7 -4 -8 -2 -4 4 4 7 16 12 27 12 15 0 19
-7 19 -31z m250 7 c0 -3 -4 -8 -10 -11 -5 -3 -10 -1 -10 4 0 6 5 11 10 11 6 0
10 -2 10 -4z m-589 -19 c-1 -12 -15 -9 -19 4 -3 6 1 10 8 8 6 -3 11 -8 11 -12z
m139 3 c0 -5 -7 -10 -16 -10 -8 0 -12 5 -9 10 3 6 10 10 16 10 5 0 9 -4 9 -10z
m284 -11 c-3 -5 -10 -7 -15 -3 -5 3 -7 10 -3 15 3 5 10 7 15 3 5 -3 7 -10 3
-15z m234 5 c-9 -9 -21 -13 -27 -10 -20 13 -11 26 16 26 25 0 26 -1 11 -16z
m62 2 c0 -8 -4 -18 -10 -21 -5 -3 -10 3 -10 14 0 12 5 21 10 21 6 0 10 -6 10
-14z m-455 -52 c8 3 19 -2 24 -12 12 -22 -4 -52 -29 -52 -10 0 -22 -4 -25 -10
-9 -14 -36 -12 -54 4 -27 24 -66 29 -84 11 -15 -14 -18 -14 -37 5 -11 11 -20
17 -21 13 -1 -5 -4 3 -8 16 -4 14 -13 27 -20 29 -9 3 -11 -2 -6 -17 8 -27 -6
-27 -30 -1 -10 11 -14 20 -9 20 5 0 18 3 30 6 13 3 28 -1 38 -11 15 -15 16
-15 17 7 0 13 3 17 6 11 2 -7 9 -13 15 -13 6 0 8 7 4 15 -3 8 -2 15 3 15 5 0
14 -7 21 -15 8 -10 9 -15 2 -15 -6 0 -9 -7 -5 -16 5 -13 7 -13 14 -2 7 10 9 9
9 -4 0 -10 7 -18 15 -18 9 0 15 9 15 25 0 20 5 25 28 26 25 0 77 17 59 18 -5
1 -5 7 0 14 5 8 9 0 11 -21 2 -24 7 -32 17 -28z m129 41 c3 -8 1 -15 -4 -15
-6 0 -10 7 -10 15 0 8 2 15 4 15 2 0 6 -7 10 -15z m626 -25 c0 -5 -4 -10 -9
-10 -6 0 -13 5 -16 10 -3 6 1 10 9 10 9 0 16 -4 16 -10z m-605 -37 c26 -29 32
-58 15 -68 -16 -10 -12 -47 7 -60 20 -15 12 -40 -17 -48 -48 -12 -79 63 -42
100 24 24 23 69 0 67 -30 -3 -21 27 10 35 2 1 14 -11 27 -26z m115 11 c0 -9
-5 -14 -12 -12 -18 6 -21 28 -4 28 9 0 16 -7 16 -16z m547 -14 c-15 -13 -24
-15 -29 -7 -10 17 10 36 32 30 19 -5 19 -6 -3 -23z m-354 4 c11 -11 -5 -34
-24 -34 -21 0 -22 1 -13 24 6 16 25 21 37 10z m-238 -25 c9 -28 -8 -45 -25
-25 -13 17 -7 46 9 46 5 0 13 -9 16 -21z m502 -5 c-3 -3 -12 -4 -19 -1 -8 3
-5 6 6 6 11 1 17 -2 13 -5z m31 -14 c-13 -20 -28 -27 -28 -12 0 10 22 32 32
32 5 0 3 -9 -4 -20z m-658 -11 c0 -18 -2 -19 -15 -9 -8 7 -15 16 -15 21 0 5 7
9 15 9 9 0 15 -9 15 -21z m398 -4 c2 -28 -15 -34 -25 -9 -5 13 3 25 22 34 0 0
2 -11 3 -25z m172 -15 c-18 -11 -24 -6 -16 16 5 14 9 15 19 5 9 -9 9 -14 -3
-21z m-800 -6 c0 -8 -5 -14 -11 -14 -5 0 -7 -5 -3 -12 4 -6 3 -8 -3 -5 -8 5
-10 33 -4 55 3 9 21 -11 21 -24z m406 1 c10 -8 29 -15 41 -15 14 0 26 -10 34
-29 7 -17 22 -32 32 -35 13 -3 17 -12 15 -33 -3 -24 0 -28 21 -25 18 2 22 -2
17 -14 -3 -8 -6 -20 -6 -25 0 -7 -58 -2 -69 7 -2 2 -4 14 -5 26 -1 17 -6 22
-22 20 -11 -1 -34 4 -50 13 -16 8 -24 15 -19 15 6 0 16 14 23 32 13 35 5 48
-30 48 -10 0 -18 7 -18 15 0 19 11 19 36 0z m109 4 c10 -15 -1 -23 -20 -15 -9
3 -13 10 -10 16 8 13 22 13 30 -1z m405 -24 c0 -9 -12 -20 -26 -26 -32 -12
-35 -10 -27 19 6 26 53 32 53 7z m50 -13 c8 -2 17 -8 18 -13 2 -5 8 -6 14 -3
8 5 8 -2 3 -22 -5 -16 -9 -45 -9 -64 -1 -31 -4 -35 -36 -41 -41 -9 -59 3 -40
26 11 13 15 13 21 3 7 -10 9 -9 9 4 0 9 7 21 16 26 13 7 14 13 6 28 -6 10 -13
18 -16 17 -18 -8 -28 -2 -17 11 6 7 9 22 5 32 -3 11 -2 15 3 9 4 -5 15 -11 23
-13z m-581 -16 c9 -10 8 -15 -3 -19 -8 -3 -16 2 -19 14 -6 22 6 25 22 5z m194
-12 c-3 -8 5 -18 22 -24 23 -9 25 -13 15 -25 -12 -14 -15 -14 -30 0 -12 11
-19 12 -28 3 -6 -6 -15 -8 -19 -4 -4 4 0 12 10 17 21 12 22 29 2 29 -8 0 -15
6 -15 14 0 9 8 12 24 9 16 -3 23 -10 19 -19z m475 14 c-6 -18 -28 -21 -28 -4
0 9 7 16 16 16 9 0 14 -5 12 -12z m-675 -66 c14 -22 1 -24 -24 -3 -22 18 -22
19 -4 18 11 -1 24 -8 28 -15z m247 -59 c0 -19 -3 -24 -10 -17 -6 6 -8 18 -4
27 9 24 14 21 14 -10z m-55 -53 c-3 -5 -13 -10 -21 -10 -8 0 -14 5 -14 10 0 6
9 10 21 10 11 0 17 -4 14 -10z m342 -5 c-4 -8 -2 -17 3 -20 11 -7 -22 -44 -33
-37 -5 2 -5 11 -2 21 4 9 8 23 10 31 2 8 4 16 4 18 1 1 6 2 12 2 6 0 9 -7 6
-15z m-267 -60 c0 -11 -29 -11 -33 -1 -4 10 1 12 14 9 10 -3 19 -7 19 -8z
m245 -43 c6 -4 11 -19 13 -33 2 -19 -4 -29 -23 -37 -28 -13 -32 -4 -14 31 9
16 9 22 0 25 -6 2 -9 8 -5 13 6 11 15 11 29 1z m55 -24 c0 -13 -23 -5 -28 10
-2 7 2 10 12 6 9 -3 16 -11 16 -16z m-9 -58 c5 0 9 -4 9 -8 0 -14 -39 -8 -45
6 -4 10 0 12 11 8 8 -3 20 -6 25 -6z"/>
<path d="M1830 3850 c0 -5 9 -10 21 -10 11 0 17 5 14 10 -3 6 -13 10 -21 10
-8 0 -14 -4 -14 -10z"/>
<path d="M940 5150 c0 -5 9 -10 20 -10 11 0 20 5 20 10 0 6 -9 10 -20 10 -11
0 -20 -4 -20 -10z"/>
<path d="M1034 5146 c22 -18 56 -21 56 -6 0 6 -9 10 -19 10 -11 0 -28 3 -38 6
-16 5 -16 4 1 -10z"/>
<path d="M820 5130 c0 -5 5 -10 10 -10 6 0 10 5 10 10 0 6 -4 10 -10 10 -5 0
-10 -4 -10 -10z"/>
<path d="M1105 5100 c-3 -5 1 -10 9 -10 9 0 16 5 16 10 0 6 -4 10 -9 10 -6 0
-13 -4 -16 -10z"/>
<path d="M800 5089 c0 -5 5 -7 10 -4 6 3 10 8 10 11 0 2 -4 4 -10 4 -5 0 -10
-5 -10 -11z"/>
<path d="M990 5040 c0 -11 4 -20 9 -20 6 0 9 9 8 20 -1 11 -5 20 -9 20 -4 0
-8 -9 -8 -20z"/>
<path d="M1080 5050 c0 -5 5 -10 10 -10 6 0 10 5 10 10 0 6 -4 10 -10 10 -5 0
-10 -4 -10 -10z"/>
<path d="M880 5035 c-17 -21 -9 -27 13 -10 10 7 14 16 9 19 -5 3 -15 -1 -22
-9z"/>
<path d="M4490 5040 c0 -5 5 -10 10 -10 6 0 10 5 10 10 0 6 -4 10 -10 10 -5 0
-10 -4 -10 -10z"/>
<path d="M1110 5030 c0 -5 9 -10 19 -10 11 0 23 5 26 10 4 6 -5 10 -19 10 -14
0 -26 -4 -26 -10z"/>
<path d="M2690 5030 c0 -5 7 -10 15 -10 8 0 15 5 15 10 0 6 -7 10 -15 10 -8 0
-15 -4 -15 -10z"/>
<path d="M1065 5010 c-4 -6 -3 -16 3 -22 6 -6 12 -6 17 2 4 6 3 16 -3 22 -6 6
-12 6 -17 -2z"/>
<path d="M1860 4979 c0 -5 4 -8 9 -5 5 3 11 -1 15 -9 7 -20 36 -19 36 0 0 18
-16 20 -23 3 -3 -8 -6 -6 -6 5 -1 18 -31 25 -31 6z"/>
<path d="M1080 4936 c0 -9 5 -16 10 -16 6 0 10 4 10 9 0 6 -4 13 -10 16 -5 3
-10 -1 -10 -9z"/>
<path d="M2717 4923 c-4 -3 -7 -13 -7 -21 0 -18 13 -7 16 13 2 17 1 18 -9 8z"/>
<path d="M2885 4892 c3 -41 -9 -64 -31 -55 -8 3 -14 0 -14 -6 0 -6 5 -11 10
-11 6 0 10 -7 10 -15 0 -8 -4 -15 -10 -15 -5 0 -10 -4 -10 -10 0 -5 6 -10 13
-10 23 0 34 -42 18 -74 -13 -28 -13 -31 7 -44 23 -15 32 -72 12 -72 -16 0 -29
-43 -17 -58 16 -20 0 -26 -37 -15 -38 12 -46 9 -46 -19 0 -21 4 -22 31 -8 22
13 24 3 4 -24 -10 -13 -11 -24 -5 -36 5 -10 8 -19 6 -21 -1 -2 5 -11 15 -21
16 -15 17 -15 22 4 3 11 0 21 -9 25 -8 3 -14 18 -14 33 0 30 14 47 25 30 11
-18 27 -11 20 10 -7 24 7 26 25 5 10 -12 16 -13 27 -3 11 9 18 8 31 -6 14 -14
15 -18 3 -25 -8 -6 -11 -16 -7 -27 4 -9 2 -20 -4 -24 -7 -4 -6 -15 3 -33 12
-28 34 -39 24 -12 -4 8 -2 17 3 20 6 4 10 -3 10 -14 0 -11 5 -23 11 -27 6 -3
8 -17 5 -30 -4 -13 -2 -24 3 -24 5 0 11 9 14 21 3 12 10 18 16 14 13 -8 15 7
2 21 -5 5 -14 35 -20 67 -6 34 -23 75 -41 102 -17 25 -28 45 -25 45 3 0 -2 13
-12 30 -17 29 -17 30 2 44 16 12 18 17 8 27 -37 37 13 39 53 2 30 -28 58 -90
44 -98 -5 -3 -11 -1 -15 5 -11 17 -22 11 -27 -15 -6 -27 18 -69 33 -59 5 3 7
14 4 23 -12 37 60 65 74 29 7 -19 8 -20 14 -3 5 11 1 22 -9 30 -10 7 -14 17
-10 24 6 9 11 9 21 1 28 -23 34 0 12 44 -12 25 -25 42 -29 40 -4 -3 -8 6 -8
20 0 14 -4 28 -10 31 -5 3 -10 -2 -10 -11 0 -14 -3 -15 -12 -6 -8 8 -8 15 2
27 11 13 10 19 -9 38 -11 13 -21 29 -21 35 0 6 -11 19 -26 28 -14 9 -23 22
-21 28 3 7 -6 13 -20 14 -19 1 -24 -2 -19 -14 3 -9 6 -20 6 -25 0 -6 3 -8 8
-5 4 2 16 -2 27 -11 18 -13 19 -15 4 -26 -14 -11 -15 -16 -4 -30 7 -10 25 -21
39 -25 19 -5 23 -11 16 -22 -8 -13 -11 -12 -25 5 -16 20 -16 20 -10 -2 5 -19
2 -23 -14 -23 -22 0 -29 16 -9 22 6 2 0 15 -15 31 -15 14 -27 35 -27 47 0 11
-4 20 -10 20 -5 0 -10 7 -10 15 0 17 -9 19 -29 6 -9 -6 -10 -11 -2 -15 6 -4
11 -12 11 -17 0 -6 -5 -7 -12 -3 -8 5 -9 0 -4 -17 4 -13 8 -32 7 -41 0 -10 7
-18 15 -18 12 0 12 -4 4 -20 -19 -35 -36 -23 -36 26 -1 25 -6 50 -13 57 -19
19 -13 46 14 53 28 7 34 24 9 24 -12 0 -15 6 -10 24 4 16 1 26 -8 29 -10 4
-13 -3 -11 -31z m220 -260 c-8 -9 -25 20 -18 31 3 5 10 2 15 -7 6 -10 7 -20 3
-24z m-167 -79 c2 -15 -4 -23 -18 -28 -27 -9 -29 -6 -23 28 7 33 36 34 41 0z"/>
<path d="M992 4905 c-7 -9 -8 -15 -2 -15 5 0 10 -8 10 -18 0 -30 12 -33 31
-11 20 23 17 39 -7 39 -8 0 -12 5 -9 10 9 15 -8 11 -23 -5z"/>
<path d="M896 4901 c-4 -5 -2 -12 3 -15 5 -4 12 -2 15 3 4 5 2 12 -3 15 -5 4
-12 2 -15 -3z"/>
<path d="M1880 4899 c0 -5 5 -7 10 -4 6 3 10 8 10 11 0 2 -4 4 -10 4 -5 0 -10
-5 -10 -11z"/>
<path d="M1066 4892 c-3 -6 -1 -14 5 -17 14 -9 20 -2 10 14 -6 8 -11 9 -15 3z"/>
<path d="M1230 4889 c0 -5 5 -7 10 -4 6 3 10 8 10 11 0 2 -4 4 -10 4 -5 0 -10
-5 -10 -11z"/>
<path d="M940 4880 c0 -9 31 -30 45 -30 3 0 1 9 -5 20 -11 20 -40 28 -40 10z"/>
<path d="M1885 4870 c3 -5 8 -10 11 -10 2 0 4 5 4 10 0 6 -5 10 -11 10 -5 0
-7 -4 -4 -10z"/>
<path d="M900 4855 c0 -18 -17 -20 -22 -3 -3 7 -7 2 -10 -10 -4 -12 -2 -20 3
-16 5 3 9 -3 9 -13 0 -15 2 -14 16 5 12 18 19 21 30 11 15 -12 9 -33 -7 -24
-5 4 -9 1 -9 -4 0 -6 -6 -11 -14 -11 -10 0 -12 -7 -8 -22 3 -12 7 -17 10 -10
2 7 8 10 13 6 5 -3 9 3 10 13 0 10 3 13 6 6 8 -21 33 -15 33 7 0 13 7 20 20
20 12 0 20 -7 20 -17 0 -9 3 -14 6 -10 3 3 3 15 -1 27 -5 17 -13 21 -31 17
-13 -2 -24 -1 -24 3 0 4 -11 15 -25 24 -22 14 -25 15 -25 1z"/>
<path d="M1920 4845 c0 -8 5 -15 10 -15 6 0 10 7 10 15 0 8 -4 15 -10 15 -5 0
-10 -7 -10 -15z"/>
<path d="M1046 4826 c3 -7 -1 -20 -8 -27 -12 -12 -11 -17 4 -31 11 -11 20 -13
24 -7 3 6 11 3 19 -8 11 -14 15 -15 28 -4 20 16 10 44 -14 38 -20 -5 -35 19
-16 27 9 3 8 8 -3 15 -21 15 -40 14 -34 -3z"/>
<path d="M2637 4768 c-4 -15 -16 -29 -27 -33 -17 -5 -18 -9 -7 -33 6 -15 16
-30 20 -33 5 -4 4 -10 -3 -14 -7 -4 -16 -1 -22 6 -6 10 -7 6 -2 -11 4 -14 10
-26 15 -28 4 -2 5 -10 2 -18 -3 -8 -1 -14 5 -14 14 0 23 28 10 32 -8 3 -7 11
1 27 16 29 32 23 45 -17 l11 -31 11 24 c9 18 9 25 -1 29 -8 3 -11 13 -8 27 5
18 3 20 -16 14 -15 -5 -21 -2 -21 9 0 9 7 16 15 16 19 0 20 16 1 23 -8 3 -16
16 -18 29 -3 22 -4 22 -11 -4z"/>
<path d="M1840 4766 c0 -14 29 -31 38 -22 2 3 2 12 -1 21 -8 19 -37 20 -37 1z"/>
<path d="M930 4739 c0 -12 -4 -18 -11 -13 -7 4 -10 1 -7 -7 3 -8 13 -15 24
-17 15 -2 19 3 19 28 0 17 -5 30 -12 30 -7 0 -13 -9 -13 -21z"/>
<path d="M1142 4738 c5 -15 28 -18 29 -3 0 6 -7 12 -17 13 -10 3 -15 -1 -12
-10z"/>
<path d="M2796 4743 c-11 -11 -6 -23 9 -23 8 0 15 -7 15 -15 0 -26 18 -16 22
13 3 23 0 28 -18 30 -11 1 -24 -1 -28 -5z"/>
<path d="M1898 4732 c-16 -3 -16 -6 -3 -26 11 -17 22 -22 40 -18 14 2 25 8 25
12 0 13 -44 36 -62 32z"/>
<path d="M1973 4712 c0 -26 3 -28 39 -27 56 0 47 34 -13 48 -23 6 -26 4 -26
-21z"/>
<path d="M2096 4692 c6 -4 14 -16 17 -26 4 -10 10 -16 13 -13 9 8 -15 47 -29
47 -8 0 -9 -3 -1 -8z"/>
<path d="M2749 4668 c-1 -2 -2 -18 -3 -35 -1 -18 -7 -38 -13 -44 -6 -6 -9 -30
-7 -52 2 -23 1 -36 -2 -29 -9 20 -33 14 -27 -7 4 -16 9 -17 33 -8 25 9 28 15
27 56 0 25 3 63 7 84 6 25 5 37 -3 37 -6 0 -11 -1 -12 -2z"/>
<path d="M4480 4640 c0 -5 5 -10 11 -10 5 0 7 5 4 10 -3 6 -8 10 -11 10 -2 0
-4 -4 -4 -10z"/>
<path d="M3173 4573 c-7 -3 -13 -12 -13 -20 0 -13 3 -13 15 -3 12 10 15 10 15
0 0 -8 3 -11 6 -7 10 9 -10 34 -23 30z"/>
<path d="M2665 4560 c-3 -5 1 -10 10 -10 9 0 13 5 10 10 -3 6 -8 10 -10 10 -2
0 -7 -4 -10 -10z"/>
<path d="M2241 4544 c0 -11 3 -14 6 -6 3 7 2 16 -1 19 -3 4 -6 -2 -5 -13z"/>
<path d="M2790 4544 c0 -8 5 -12 10 -9 6 3 10 10 10 16 0 5 -4 9 -10 9 -5 0
-10 -7 -10 -16z"/>
<path d="M3750 4549 c0 -5 5 -7 10 -4 6 3 10 8 10 11 0 2 -4 4 -10 4 -5 0 -10
-5 -10 -11z"/>
<path d="M996 4536 c3 -8 12 -12 20 -9 21 8 17 23 -6 23 -13 0 -18 -5 -14 -14z"/>
<path d="M3760 4525 c-6 -7 -10 -24 -7 -37 4 -20 4 -19 6 6 1 21 5 27 16 22 8
-3 15 -1 15 4 0 17 -18 20 -30 5z"/>
<path d="M3190 4523 c0 -6 8 -17 18 -24 16 -13 16 -13 2 6 -8 11 -16 22 -17
24 -2 2 -3 0 -3 -6z"/>
<path d="M3150 4462 c1 -30 18 -95 28 -101 5 -3 15 -16 21 -29 11 -21 10 -24
-8 -29 -11 -3 -22 -12 -25 -20 -3 -8 -11 -11 -17 -7 -7 4 -9 3 -5 -4 3 -6 21
-14 38 -17 18 -4 40 -18 51 -31 21 -27 37 -31 37 -9 0 8 5 15 10 15 6 0 10 -5
10 -11 0 -8 4 -8 14 0 11 9 15 9 19 -1 4 -9 6 -9 6 -1 1 6 -6 19 -15 28 -9 8
-13 22 -10 31 3 8 2 13 -2 10 -5 -3 -9 9 -9 25 0 17 -5 34 -13 39 -7 4 -10 12
-6 18 3 6 2 13 -4 17 -5 3 -10 0 -11 -7 0 -7 -4 -4 -8 7 -5 11 -4 23 1 26 5 3
4 17 -3 33 -15 32 -45 31 -42 -2 2 -14 -3 -22 -13 -22 -9 0 -14 6 -11 14 3 7
-3 20 -14 29 -18 16 -19 16 -19 -1z m90 -124 c0 -7 6 -25 14 -40 12 -23 12
-27 -2 -33 -22 -8 -38 11 -23 28 9 12 8 16 -4 20 -8 4 -12 13 -9 22 7 18 24
20 24 3z m34 -13 c3 -8 1 -15 -3 -15 -5 0 -11 7 -15 15 -3 8 -1 15 3 15 5 0
11 -7 15 -15z"/>
<path d="M3065 4430 c-9 -15 4 -30 26 -30 24 0 24 12 -1 27 -12 8 -21 9 -25 3z"/>
<path d="M3790 4400 c-8 -5 -12 -11 -9 -14 3 -3 14 1 25 9 21 16 8 20 -16 5z"/>
<path d="M1126 4325 c6 -14 4 -16 -7 -10 -8 5 -11 4 -6 0 10 -12 37 -15 37 -5
0 4 -7 13 -15 20 -13 11 -14 10 -9 -5z"/>
<path d="M1240 4291 c0 -6 4 -11 10 -11 5 0 9 -11 8 -24 -1 -15 -7 -22 -15
-19 -7 3 -10 10 -7 15 4 6 -3 5 -15 -1 -12 -7 -26 -9 -32 -5 -6 4 -15 0 -20
-7 -13 -21 -11 -25 13 -26 11 -1 25 -8 30 -15 7 -9 11 -9 14 -2 3 6 16 9 30 6
24 -4 25 -2 19 19 -7 20 -6 22 7 11 13 -10 15 -9 14 7 -1 20 -56 71 -56 52z"/>
<path d="M2975 4290 c-3 -5 1 -10 10 -10 9 0 13 5 10 10 -3 6 -8 10 -10 10 -2
0 -7 -4 -10 -10z"/>
<path d="M3886 4285 c-23 -17 -13 -34 11 -19 19 12 29 34 16 34 -4 0 -17 -7
-27 -15z"/>
<path d="M4260 4280 c-6 -11 -7 -20 -2 -20 10 0 32 21 32 32 0 16 -19 8 -30
-12z"/>
<path d="M2866 4282 c-3 -5 1 -9 9 -9 8 0 12 4 9 9 -3 4 -7 8 -9 8 -2 0 -6 -4
-9 -8z"/>
<path d="M3811 4264 c0 -11 3 -14 6 -6 3 7 2 16 -1 19 -3 4 -6 -2 -5 -13z"/>
<path d="M4357 4260 c3 -11 9 -17 14 -15 10 7 1 35 -11 35 -5 0 -6 -9 -3 -20z"/>
<path d="M4007 4224 c-4 -4 -7 -16 -7 -26 0 -11 -7 -18 -20 -18 -26 0 -25 -12
2 -29 19 -12 23 -11 39 10 10 13 19 27 19 30 0 12 -26 40 -33 33z"/>
<path d="M3906 4204 c-10 -25 -7 -31 14 -37 23 -6 26 10 6 36 -12 16 -14 16
-20 1z"/>
<path d="M3280 4190 c-24 -21 -22 -62 3 -42 8 7 18 7 27 1 13 -8 13 -10 0 -19
-8 -5 -10 -10 -4 -10 5 0 16 6 23 13 10 10 11 5 6 -21 -4 -22 -1 -38 10 -48
17 -17 20 -11 6 15 -6 10 -6 23 0 32 7 12 9 12 9 0 0 -8 2 -12 5 -10 9 9 -24
84 -42 96 -17 11 -23 10 -43 -7z m57 -32 c-3 -8 -6 -5 -6 6 -1 11 2 17 5 13 3
-3 4 -12 1 -19z"/>
<path d="M3747 4193 c-9 -9 -9 -53 1 -53 4 0 7 14 7 30 0 17 0 30 -1 30 0 0
-4 -3 -7 -7z"/>
<path d="M4240 4190 c0 -5 4 -10 9 -10 6 0 13 5 16 10 3 6 -1 10 -9 10 -9 0
-16 -4 -16 -10z"/>
<path d="M3870 4145 c7 -8 17 -12 22 -9 6 4 5 10 -3 15 -22 14 -33 10 -19 -6z"/>
<path d="M3222 4124 c-13 -25 -16 -54 -7 -81 10 -30 21 -29 29 1 4 15 14 26
29 28 26 4 30 33 5 33 -10 0 -24 9 -31 19 -14 19 -15 19 -25 0z"/>
<path d="M4178 4133 c6 -2 18 -2 25 0 6 3 1 5 -13 5 -14 0 -19 -2 -12 -5z"/>
<path d="M3050 4120 c0 -5 7 -10 16 -10 8 0 12 5 9 10 -3 6 -10 10 -16 10 -5
0 -9 -4 -9 -10z"/>
<path d="M4130 4110 c0 -6 7 -10 15 -10 8 0 15 2 15 4 0 2 -7 6 -15 10 -8 3
-15 1 -15 -4z"/>
<path d="M5160 4110 c0 -5 -6 -7 -14 -4 -13 5 -252 -99 -380 -165 -33 -17 -65
-31 -71 -31 -6 0 -21 -9 -33 -20 -12 -11 -25 -20 -30 -20 -5 0 -22 -10 -38
-22 -15 -13 -38 -21 -50 -20 -15 2 -27 -4 -34 -17 -6 -12 -21 -21 -35 -21 -15
0 -31 -11 -44 -29 -25 -35 -26 -39 -5 -37 9 0 19 -5 22 -13 3 -10 0 -12 -13
-7 -13 4 -16 2 -11 -9 4 -10 -1 -15 -14 -15 -11 0 -20 5 -20 10 0 6 5 10 11
10 5 0 7 4 4 10 -12 20 -31 -14 -29 -51 2 -39 -21 -62 -38 -37 -4 7 -8 10 -9
6 -1 -5 -3 -12 -4 -18 -1 -5 -3 -17 -4 -25 -1 -9 -7 -12 -17 -8 -14 5 -15 3
-5 -15 12 -23 10 -25 -26 -22 -13 1 -23 -3 -23 -9 0 -6 5 -11 11 -11 8 0 8 -5
-1 -15 -11 -14 -7 -19 13 -16 4 0 7 -8 7 -19 0 -11 5 -20 11 -20 6 0 9 7 6 15
-4 8 5 23 21 35 25 20 26 21 4 15 -24 -7 -24 -8 5 44 6 10 42 -46 39 -61 -2
-9 1 -19 8 -22 6 -2 0 -5 -14 -5 -37 -2 -58 -17 -43 -32 10 -10 21 -10 50 -1
21 6 69 14 108 17 51 4 74 11 88 26 22 24 39 25 30 2 -5 -15 -4 -16 8 -7 14
12 121 16 114 5 -2 -3 13 -5 33 -4 123 9 163 9 168 1 5 -8 48 -1 69 11 11 6
13 6 90 11 l50 3 -40 7 c-32 6 -34 7 -12 9 16 0 26 5 23 10 -3 4 7 8 22 7 15
0 45 3 67 8 38 7 39 7 20 -9 -20 -16 -19 -16 5 -9 14 4 26 10 28 14 2 4 12 6
22 3 11 -3 31 2 44 11 17 11 35 14 58 9 30 -6 32 -5 19 11 -13 16 -12 17 15
14 16 -2 31 -6 34 -9 3 -4 14 -3 25 2 19 7 19 8 1 8 -15 1 -17 4 -8 13 8 8 15
8 24 0 16 -12 51 13 56 41 4 21 -26 23 -34 2 -5 -12 -10 -13 -19 -5 -10 8 -20
8 -36 -2 -17 -10 -23 -10 -26 0 -3 6 -14 12 -24 12 -11 0 -17 -5 -14 -10 4 -6
11 -8 16 -5 5 4 9 2 9 -3 0 -6 -6 -12 -12 -14 -18 -7 -39 2 -32 13 3 5 -7 9
-23 10 l-28 0 30 14 c49 22 68 28 100 32 17 2 32 8 33 13 2 6 14 10 27 10 38
0 55 11 55 34 0 17 2 18 10 6 7 -12 10 -12 10 -1 0 9 8 11 24 7 39 -10 59 3
51 32 -5 21 -3 24 13 20 21 -6 52 8 52 23 0 6 -8 6 -20 -1 -11 -6 -26 -7 -33
-3 -6 4 -23 6 -36 4 -16 -2 -21 1 -15 10 5 9 2 10 -12 5 -10 -5 -24 -9 -31 -9
-6 0 -16 -11 -22 -24 -6 -13 -15 -22 -20 -18 -5 3 -12 1 -16 -5 -3 -5 -11 -10
-16 -10 -6 0 -8 4 -4 9 3 6 -3 14 -12 20 -10 5 -14 13 -10 17 5 5 12 2 16 -5
5 -7 14 -11 20 -7 7 5 6 14 -4 29 -9 15 -12 37 -9 70 3 30 1 47 -5 47 -6 0
-11 -4 -11 -10 0 -5 -5 -10 -11 -10 -6 0 -8 9 -4 20 5 16 2 20 -14 20 -11 0
-25 -9 -31 -20 -14 -26 -40 -25 -68 0 -20 19 -22 19 -23 3 0 -12 -2 -13 -6 -5
-7 18 25 52 43 45 8 -3 14 0 14 6 0 6 -5 11 -11 11 -6 0 -9 9 -6 20 3 11 1 20
-4 20 -5 0 -18 -9 -29 -20 -11 -11 -29 -20 -40 -20 -13 0 -20 7 -20 20 0 15 7
20 28 21 23 2 24 2 5 6 -13 2 -23 9 -23 15 0 5 7 8 15 5 8 -4 17 -2 20 3 4 6
-5 10 -19 10 -15 0 -26 -6 -26 -14 0 -7 -14 -16 -32 -20 -38 -8 -44 -3 -23 18
15 14 15 17 1 22 -8 3 -20 2 -27 -2 -8 -4 -9 -3 -5 4 4 7 2 12 -3 12 -6 0 -11
-4 -11 -10z m-90 -64 c0 -2 -7 -7 -16 -10 -8 -3 -12 -2 -9 4 6 10 25 14 25 6z
m199 -42 c6 4 11 3 11 -2 0 -6 -7 -12 -15 -16 -8 -3 -15 -4 -15 -2 0 3 -3 13
-6 23 -4 14 -4 15 4 4 5 -7 15 -10 21 -7z m-295 -39 c-4 -8 -12 -15 -20 -15
-20 0 -17 18 4 23 9 3 18 5 19 6 1 0 0 -6 -3 -14z m466 -33 c0 -13 -12 -22
-22 -16 -10 6 -1 24 13 24 5 0 9 -4 9 -8z m13 -117 c8 -18 -11 -31 -25 -17
-11 11 -3 32 12 32 4 0 10 -7 13 -15z m-755 -7 c-2 -6 -10 -14 -16 -16 -7 -2
-10 2 -6 12 7 18 28 22 22 4z m942 -27 c0 -12 -28 -22 -34 -12 -3 5 -3 11 1
15 9 9 33 7 33 -3z m-240 -21 c0 -5 -2 -10 -4 -10 -3 0 -8 5 -11 10 -3 6 -1
10 4 10 6 0 11 -4 11 -10z m135 0 c3 -5 -1 -10 -10 -10 -9 0 -13 5 -10 10 3 6
8 10 10 10 2 0 7 -4 10 -10z m-960 -10 c-3 -5 -11 -10 -16 -10 -6 0 -7 5 -4
10 3 6 11 10 16 10 6 0 7 -4 4 -10z m755 -1 c0 -5 -4 -8 -9 -4 -5 3 -12 1 -16
-5 -3 -5 -13 -10 -21 -10 -8 0 -12 5 -9 10 4 6 10 8 15 5 5 -3 11 -1 15 5 8
13 25 13 25 -1z m-693 -55 c-3 -3 -12 -4 -19 -1 -8 3 -5 6 6 6 11 1 17 -2 13
-5z m-267 -134 c0 -5 -4 -10 -10 -10 -5 0 -10 5 -10 10 0 6 5 10 10 10 6 0 10
-4 10 -10z m325 -30 c-3 -5 -10 -10 -16 -10 -5 0 -9 5 -9 10 0 6 7 10 16 10 8
0 12 -4 9 -10z m72 -12 c-3 -8 -6 -5 -6 6 -1 11 2 17 5 13 3 -3 4 -12 1 -19z
m93 1 c0 -6 -4 -7 -10 -4 -5 3 -10 11 -10 16 0 6 5 7 10 4 6 -3 10 -11 10 -16z
m75 0 c-4 -5 -13 -9 -22 -9 -13 0 -13 3 -3 15 13 15 35 11 25 -6z"/>
<path d="M5685 4070 c-3 -5 1 -10 9 -10 8 0 18 5 21 10 3 6 -1 10 -9 10 -8 0
-18 -4 -21 -10z"/>
<path d="M3316 4045 c4 -8 8 -15 10 -15 2 0 4 7 4 15 0 8 -4 15 -10 15 -5 0
-7 -7 -4 -15z"/>
<path d="M5400 4030 c0 -22 11 -31 28 -21 8 5 6 12 -8 24 -19 16 -20 16 -20
-3z"/>
<path d="M3250 4020 c0 -23 15 -27 27 -6 4 7 15 16 23 19 8 3 0 6 -17 6 -27 1
-33 -3 -33 -19z"/>
<path d="M3243 3977 c5 -15 37 -22 37 -9 0 5 -9 12 -21 15 -13 3 -19 1 -16 -6z"/>
<path d="M5375 3980 c-3 -5 1 -10 9 -10 9 0 16 5 16 10 0 6 -4 10 -9 10 -6 0
-13 -4 -16 -10z"/>
<path d="M5520 3970 c0 -5 5 -10 10 -10 6 0 10 5 10 10 0 6 -4 10 -10 10 -5 0
-10 -4 -10 -10z"/>
<path d="M5590 3960 c-8 -5 -12 -11 -10 -14 3 -2 14 2 24 10 22 15 10 19 -14
4z"/>
<path d="M5766 3951 c-4 -5 -2 -12 3 -15 5 -4 12 -2 15 3 4 5 2 12 -3 15 -5 4
-12 2 -15 -3z"/>
<path d="M5523 3936 c4 -10 7 -29 7 -42 0 -13 4 -24 10 -24 14 0 7 55 -9 71
-13 11 -14 11 -8 -5z"/>
<path d="M5700 3888 c-22 -10 -23 -12 -6 -15 10 -3 26 2 34 11 19 18 8 20 -28
4z"/>
<path d="M3411 3864 c0 -11 3 -14 6 -6 3 7 2 16 -1 19 -3 4 -6 -2 -5 -13z"/>
<path d="M4215 3870 c3 -5 8 -10 11 -10 2 0 4 5 4 10 0 6 -5 10 -11 10 -5 0
-7 -4 -4 -10z"/>
<path d="M6682 3868 c-14 -14 -15 -38 -2 -58 9 -13 11 -13 20 0 5 8 15 15 22
15 18 0 23 36 6 46 -18 12 -32 11 -46 -3z"/>
<path d="M5560 3860 c0 -5 5 -10 10 -10 6 0 10 5 10 10 0 6 -4 10 -10 10 -5 0
-10 -4 -10 -10z"/>
<path d="M5627 3863 c-14 -14 -6 -20 19 -15 19 3 22 7 12 13 -16 11 -23 11
-31 2z"/>
<path d="M6235 3860 c3 -5 8 -10 11 -10 2 0 4 5 4 10 0 6 -5 10 -11 10 -5 0
-7 -4 -4 -10z"/>
<path d="M6090 3856 c0 -2 7 -6 15 -10 8 -3 15 -1 15 4 0 6 -7 10 -15 10 -8 0
-15 -2 -15 -4z"/>
<path d="M1773 3748 c2 -7 -3 -18 -12 -25 -14 -10 -14 -12 2 -19 10 -3 22 -3
27 2 11 11 1 54 -12 54 -5 0 -8 -6 -5 -12z"/>
<path d="M2362 3743 c-13 -23 -4 -37 15 -25 6 4 7 16 3 27 -7 19 -7 19 -18 -2z"/>
<path d="M3365 3750 c3 -5 8 -10 11 -10 2 0 4 5 4 10 0 6 -5 10 -11 10 -5 0
-7 -4 -4 -10z"/>
<path d="M3486 3751 c-4 -7 -5 -15 -2 -18 9 -9 19 4 14 18 -4 11 -6 11 -12 0z"/>
<path d="M6098 3753 c7 -3 16 -2 19 1 4 3 -2 6 -13 5 -11 0 -14 -3 -6 -6z"/>
<path d="M6664 3752 c-7 -5 -7 -14 2 -30 10 -20 12 -21 18 -7 14 37 5 54 -20
37z"/>
<path d="M5780 3725 c-46 -16 -46 -39 0 -43 19 -2 38 -8 41 -14 10 -16 29 0
22 19 -4 9 1 21 12 29 16 12 16 14 3 14 -9 0 -22 2 -30 4 -7 2 -29 -2 -48 -9z"/>
<path d="M5976 3711 c-4 -6 -4 -17 0 -23 4 -7 -2 -5 -13 5 -26 23 -36 22 -28
-4 6 -18 4 -19 -13 -10 -17 9 -19 7 -14 -15 2 -14 7 -23 11 -21 3 2 21 10 38
17 36 16 45 30 33 49 -5 9 -10 10 -14 2z"/>
<path d="M6111 3694 c0 -11 3 -14 6 -6 3 7 2 16 -1 19 -3 4 -6 -2 -5 -13z"/>
<path d="M6210 3698 c-19 -5 -46 -18 -61 -29 -15 -10 -34 -19 -43 -19 -13 0
-15 -4 -6 -19 13 -26 13 -31 -4 -31 -8 0 -18 -4 -21 -10 -4 -6 6 -7 25 -4 26
6 30 4 30 -15 0 -12 6 -21 15 -21 8 0 15 -4 15 -9 0 -5 -7 -11 -15 -15 -8 -3
-15 -13 -15 -22 0 -14 -8 -16 -50 -12 -28 3 -53 7 -56 10 -2 3 0 17 7 31 9 21
8 29 -7 51 -25 34 -37 37 -81 23 -21 -7 -42 -13 -48 -13 -27 0 -86 -17 -91
-26 -4 -6 -10 -5 -15 3 -7 12 -10 11 -21 -1 -7 -9 -24 -24 -37 -35 -22 -18
-24 -18 -18 -2 6 16 5 16 -18 1 -14 -9 -23 -20 -20 -24 3 -5 2 -10 -2 -13 -5
-2 -2 -2 5 0 19 4 54 -16 47 -28 -4 -5 -2 -9 2 -9 5 0 10 -11 11 -25 3 -49 6
-55 20 -55 9 0 12 6 8 16 -11 28 4 34 34 13 16 -12 35 -19 44 -16 8 3 18 2 21
-3 9 -15 25 -12 25 5 0 8 4 15 8 15 15 0 52 37 45 44 -13 12 13 6 35 -10 20
-14 23 -14 28 0 7 19 34 21 34 3 0 -8 -9 -22 -19 -31 -18 -17 -20 -17 -29 0
-12 22 -42 11 -42 -16 0 -15 -7 -20 -25 -20 -28 0 -44 -25 -27 -42 6 -6 8 -16
6 -23 -3 -7 5 -15 16 -18 26 -7 24 -42 -2 -42 -26 0 -28 -8 -8 -35 11 -14 20
-19 20 -12 0 6 4 12 9 12 13 0 22 -30 14 -43 -15 -25 -12 -47 10 -69 12 -13
21 -21 20 -19 -2 2 11 13 27 23 37 22 48 47 28 62 -13 10 -13 13 3 30 10 10
16 23 13 28 -3 5 -1 15 5 22 6 7 9 20 6 28 -3 8 1 21 10 28 8 7 15 19 15 26 0
23 -26 16 -38 -11 -10 -21 -18 -25 -57 -25 -48 0 -55 6 -28 25 13 10 22 10 35
1 16 -9 22 -7 38 14 10 13 16 28 14 32 -3 4 4 8 15 8 10 0 22 6 24 13 3 6 6 3
6 -8 1 -12 6 -26 11 -31 7 -7 6 -20 -4 -40 -10 -18 -12 -32 -6 -38 13 -13 13
-43 0 -48 -13 -4 39 -68 55 -68 7 0 15 14 19 30 6 33 21 37 52 16 20 -15 64
-11 64 4 0 4 9 10 21 13 25 7 16 27 -12 27 -35 0 -20 18 21 25 34 6 39 9 29
21 -9 11 -7 14 10 14 12 0 21 -6 21 -15 0 -8 7 -15 15 -15 19 0 19 7 -2 28
-16 16 -15 17 8 20 13 2 28 8 34 13 12 11 45 12 45 0 0 -4 18 -8 39 -8 30 0
38 3 34 14 -4 10 -14 12 -35 8 -25 -6 -30 -3 -35 15 -4 15 -10 19 -22 14 -9
-4 -31 -8 -49 -8 -18 -1 -36 -7 -40 -13 -5 -7 -22 -15 -40 -17 -25 -3 -35 2
-47 21 -9 13 -13 28 -10 33 10 17 -16 22 -34 6 -21 -19 -41 -21 -41 -3 0 15
71 41 80 29 14 -19 30 -11 24 12 -5 23 -3 25 38 28 35 2 43 7 43 23 0 15 7 20
27 20 22 -1 25 2 17 17 -8 15 -12 16 -44 2 -43 -18 -45 -17 -45 1 0 19 -5 19
-38 1 -48 -25 -79 -32 -74 -15 3 12 -15 11 -37 -1 -16 -8 -18 -5 -18 15 0 20
5 25 23 25 16 0 22 4 18 14 -3 8 0 17 6 21 8 5 6 13 -6 26 -18 20 -17 21 33
23 20 1 33 -4 33 -11 0 -8 9 -11 23 -9 12 3 22 5 22 6 0 3 85 12 128 14 30 0
47 5 47 14 0 9 11 10 40 6 27 -4 40 -3 40 5 0 6 -4 11 -10 11 -5 0 -10 7 -10
15 0 22 -46 19 -70 -5 -18 -18 -25 -19 -61 -10 -34 9 -43 8 -68 -9 -33 -23
-65 -19 -95 15 -18 19 -26 21 -56 12z m-245 -138 c3 -5 2 -10 -4 -10 -5 0 -13
5 -16 10 -3 6 -2 10 4 10 5 0 13 -4 16 -10z m-39 -25 c4 -8 15 -15 25 -15 23
0 36 -27 21 -42 -8 -8 -15 -8 -27 2 -12 10 -18 10 -30 0 -12 -10 -15 -10 -15
0 0 7 -8 10 -20 7 -10 -3 -25 1 -31 9 -14 18 -3 32 12 17 16 -16 39 -5 39 18
0 23 18 25 26 4z m272 -91 c-2 -23 -9 -30 -35 -35 -37 -7 -44 5 -13 21 11 6
20 19 20 29 0 10 3 21 7 25 12 12 25 -11 21 -40z m-348 26 c0 -5 -12 -10 -27
-10 -22 0 -25 2 -13 10 20 13 40 13 40 0z m225 -10 c3 -5 -1 -10 -10 -10 -9 0
-13 5 -10 10 3 6 8 10 10 10 2 0 7 -4 10 -10z m65 0 c0 -5 -5 -10 -11 -10 -5
0 -7 5 -4 10 3 6 8 10 11 10 2 0 4 -4 4 -10z m-363 -16 c-3 -3 -12 -4 -19 -1
-8 3 -5 6 6 6 11 1 17 -2 13 -5z m53 -34 c0 -5 -2 -10 -4 -10 -3 0 -8 5 -11
10 -3 6 -1 10 4 10 6 0 11 -4 11 -10z m150 -10 c0 -5 -5 -10 -11 -10 -5 0 -7
5 -4 10 3 6 8 10 11 10 2 0 4 -4 4 -10z m-10 -49 c0 -12 -20 -25 -27 -18 -7 7
6 27 18 27 5 0 9 -4 9 -9z m250 -81 c0 -11 -49 -19 -55 -9 -3 4 2 12 12 17 18
10 43 5 43 -8z m30 3 c0 -5 -5 -15 -10 -23 -8 -12 -10 -11 -10 8 0 12 5 22 10
22 6 0 10 -3 10 -7z m-260 -63 c0 -5 -4 -10 -9 -10 -6 0 -13 5 -16 10 -3 6 1
10 9 10 9 0 16 -4 16 -10z"/>
<path d="M5660 3690 c0 -5 5 -10 10 -10 6 0 10 5 10 10 0 6 -4 10 -10 10 -5 0
-10 -4 -10 -10z"/>
<path d="M1801 3687 c2 -1 13 -9 24 -17 19 -14 19 -14 6 3 -7 9 -18 17 -24 17
-6 0 -8 -1 -6 -3z"/>
<path d="M1867 3679 c7 -7 15 -10 18 -7 3 3 -2 9 -12 12 -14 6 -15 5 -6 -5z"/>
<path d="M6031 3681 c-8 -5 -9 -11 -3 -15 5 -3 15 1 22 9 14 16 3 20 -19 6z"/>
<path d="M2600 3670 c0 -5 5 -10 11 -10 5 0 7 5 4 10 -3 6 -8 10 -11 10 -2 0
-4 -4 -4 -10z"/>
<path d="M5551 3671 c-8 -5 -10 -14 -7 -20 8 -13 46 -15 46 -2 0 16 -25 30
-39 22z"/>
<path d="M2365 3618 c9 -52 21 -68 30 -38 4 12 4 24 1 27 -3 4 -1 12 5 20 9
10 8 13 -5 13 -9 0 -16 5 -16 10 0 6 -5 10 -11 10 -7 0 -8 -14 -4 -42z"/>
<path d="M2671 3643 c0 -7 -8 -13 -16 -13 -21 0 -19 -17 7 -58 22 -36 22 -36
29 -12 3 14 2 30 -2 35 -4 6 -9 21 -12 35 -2 14 -5 19 -6 13z"/>
<path d="M5780 3640 c-12 -8 -11 -10 7 -10 12 0 25 5 28 10 8 13 -15 13 -35 0z"/>
<path d="M2009 3637 c0 -1 -2 -12 -3 -24 -2 -19 2 -23 23 -22 22 0 23 1 7 8
-18 7 -18 8 -3 14 23 9 21 22 -3 24 -11 1 -20 1 -21 0z"/>
<path d="M2740 3636 c0 -9 30 -14 35 -6 4 6 -3 10 -14 10 -12 0 -21 -2 -21 -4z"/>
<path d="M2834 3614 c3 -9 6 -18 6 -20 0 -2 4 -4 8 -4 4 0 8 9 9 20 1 12 -4
20 -14 20 -10 0 -13 -6 -9 -16z"/>
<path d="M5592 3619 c2 -6 7 -10 11 -10 4 1 14 1 23 1 8 0 12 5 9 10 -8 13
-48 13 -43 -1z"/>
<path d="M2944 3594 c4 -12 2 -15 -9 -10 -8 3 -15 1 -15 -4 0 -6 4 -10 9 -10
5 0 11 -13 15 -30 6 -34 21 -39 29 -10 3 11 1 20 -4 20 -6 0 -6 7 0 18 7 13 6
23 -1 30 -17 17 -31 15 -24 -4z"/>
<path d="M2078 3583 c7 -3 16 -2 19 1 4 3 -2 6 -13 5 -11 0 -14 -3 -6 -6z"/>
<path d="M2883 3575 c-3 -9 -3 -18 0 -21 9 -9 27 6 27 22 0 19 -19 18 -27 -1z"/>
<path d="M6855 3580 c-3 -5 -1 -10 4 -10 6 0 11 5 11 10 0 6 -2 10 -4 10 -3 0
-8 -4 -11 -10z"/>
<path d="M6740 3570 c-13 -8 -12 -10 3 -10 9 0 17 5 17 10 0 12 -1 12 -20 0z"/>
<path d="M2794 3558 c-3 -4 5 -5 17 -3 30 6 36 14 9 12 -12 -1 -24 -5 -26 -9z"/>
<path d="M2995 3560 c-3 -5 -1 -10 4 -10 6 0 11 5 11 10 0 6 -2 10 -4 10 -3 0
-8 -4 -11 -10z"/>
<path d="M2804 3516 c5 -21 3 -26 -11 -26 -14 0 -14 -3 5 -16 12 -8 20 -20 17
-25 -4 -5 5 -9 19 -9 20 0 24 4 19 17 -5 11 -3 14 6 8 8 -4 17 -2 23 6 6 10 7
6 3 -11 -7 -24 -6 -24 11 -8 16 16 16 19 2 35 -8 10 -13 24 -11 31 4 10 -4 13
-29 11 -18 -2 -40 1 -47 5 -11 7 -13 3 -7 -18z"/>
<path d="M2910 3531 c0 -5 5 -13 10 -16 6 -3 10 -2 10 4 0 5 -4 13 -10 16 -5
3 -10 2 -10 -4z"/>
<path d="M6555 3520 c-8 -12 20 -24 35 -15 5 3 10 10 10 16 0 12 -37 12 -45
-1z"/>
<path d="M6455 3510 c-3 -5 3 -10 15 -10 12 0 18 5 15 10 -3 6 -10 10 -15 10
-5 0 -12 -4 -15 -10z"/>
<path d="M3003 3496 c4 -10 7 -22 7 -27 0 -5 4 -9 8 -9 14 0 10 25 -7 40 -13
13 -14 12 -8 -4z"/>
<path d="M5626 3495 c-11 -8 -15 -15 -9 -15 6 0 16 7 23 15 16 19 11 19 -14 0z"/>
<path d="M2700 3480 c8 -5 20 -10 25 -10 6 0 3 5 -5 10 -8 5 -19 10 -25 10 -5
0 -3 -5 5 -10z"/>
<path d="M3044 3478 c-5 -7 -3 -8 5 -4 7 5 18 0 26 -10 13 -17 14 -17 15 -3 0
9 -7 20 -16 23 -21 8 -22 8 -30 -6z"/>
<path d="M2664 3472 c3 -6 0 -13 -6 -16 -7 -3 -4 -5 6 -3 21 2 25 19 5 26 -6
2 -9 -1 -5 -7z"/>
<path d="M5587 3453 c-3 -5 6 -9 19 -9 13 -1 24 2 24 7 0 11 -37 12 -43 2z"/>
<path d="M5680 3441 c0 -5 9 -7 20 -4 11 3 20 7 20 9 0 2 -9 4 -20 4 -11 0
-20 -4 -20 -9z"/>
<path d="M2646 3430 c13 -13 102 -16 114 -4 5 5 -20 10 -58 11 -45 2 -63 0
-56 -7z"/>
<path d="M5525 3420 c-3 -6 -18 -9 -33 -8 -15 1 -37 -4 -49 -10 -12 -7 -38
-12 -57 -12 -20 0 -36 -5 -36 -11 0 -6 -11 -8 -27 -5 -32 7 -69 -9 -43 -18 8
-2 32 -7 54 -11 23 -4 35 -10 30 -15 -6 -6 -32 -3 -64 6 -80 21 -194 6 -275
-38 -14 -8 -20 -8 -23 1 -5 14 -59 15 -67 1 -4 -7 -13 -6 -27 1 -11 6 -30 8
-42 5 -11 -3 -50 -1 -86 5 -131 21 -140 20 -140 -1 0 -11 -6 -20 -12 -21 -7 0
-24 -3 -38 -5 -29 -5 -16 11 15 20 11 3 2 3 -20 0 -22 -3 -48 -13 -57 -21 -11
-10 -18 -12 -18 -5 0 7 -7 12 -16 12 -9 0 -12 -5 -8 -11 5 -9 -1 -10 -22 -5
-16 4 -24 3 -17 -2 8 -5 10 -20 7 -37 -7 -40 -19 -51 -38 -36 -9 7 -21 11 -28
9 -21 -7 52 -40 78 -35 14 2 25 -2 28 -10 8 -19 61 -40 125 -47 30 -4 65 -9
77 -12 12 -3 24 -2 27 3 3 4 26 7 51 5 38 -3 45 -7 35 -18 -8 -10 -5 -14 18
-19 15 -4 40 -11 55 -17 16 -6 37 -8 48 -5 11 3 20 1 20 -4 0 -5 5 -9 12 -9 9
0 9 3 0 12 -28 28 -5 50 28 28 12 -8 13 -11 1 -19 -9 -6 -10 -11 -2 -15 6 -4
11 -4 11 0 0 3 11 -1 24 -10 30 -19 86 -30 86 -16 0 5 7 10 15 10 18 0 20 -16
3 -23 -8 -4 -7 -6 4 -6 9 -1 18 4 20 11 2 6 31 15 64 19 32 4 68 11 80 14 13
4 27 1 37 -9 18 -18 37 -21 37 -6 0 6 7 10 15 10 8 0 15 6 15 13 0 15 72 39
83 28 5 -5 0 -15 -10 -22 -10 -8 -19 -21 -21 -29 -2 -8 -12 -21 -22 -29 -33
-23 -23 -29 43 -25 34 2 69 4 77 4 8 0 26 10 39 21 22 18 23 23 12 41 -16 25
-6 36 19 20 31 -19 96 -26 105 -12 5 8 4 11 -3 6 -17 -10 -76 23 -98 55 -21
31 -33 36 -52 17 -9 -9 -12 -9 -12 1 0 7 -4 10 -9 6 -5 -3 -13 0 -16 6 -4 6
-18 8 -30 5 -24 -6 -49 14 -27 22 7 2 12 12 12 23 0 12 7 19 20 19 11 0 20 -7
20 -15 0 -19 20 -19 48 1 12 8 22 12 22 8 0 -5 5 -3 12 4 19 19 31 14 24 -11
-5 -21 -2 -24 24 -22 25 1 34 -5 51 -32 12 -20 29 -33 41 -33 16 0 19 -5 15
-21 -5 -19 -4 -19 17 3 17 19 21 35 20 74 -2 82 -3 84 -24 84 -11 0 -20 6 -20
14 0 12 -20 26 -36 26 -2 0 -4 -10 -4 -23 0 -12 -10 -31 -22 -41 -21 -18 -22
-18 -35 0 -18 25 -16 32 10 36 22 4 22 4 -3 15 -14 6 -47 18 -75 27 -45 13
-51 13 -68 -1 -13 -12 -20 -14 -29 -5 -8 8 -4 14 18 22 15 6 37 9 47 6 12 -3
21 3 27 20 6 15 17 24 30 24 16 0 20 5 15 19 -5 15 -1 18 20 13 15 -2 25 0 25
7 0 7 -11 10 -27 7 -16 -2 -31 -5 -35 -5 -5 -1 -7 -6 -5 -13 1 -6 -9 -14 -23
-18 -14 -4 -24 -12 -22 -19 1 -7 -2 -10 -7 -7 -5 3 -7 16 -4 29 5 21 5 21 -9
3 -12 -15 -17 -16 -23 -6 -5 8 -2 18 9 26 10 7 13 15 7 18 -5 4 -12 2 -16 -4z
m-2 -47 c4 -2 7 -10 7 -16 0 -17 -47 -14 -63 3 -9 10 -9 11 1 6 6 -4 12 -3 12
3 0 5 -6 12 -12 15 -7 3 1 3 17 -1 17 -3 33 -8 38 -10z m-76 -58 c-1 -14 -5
-25 -10 -25 -9 0 -10 9 -3 33 6 26 15 21 13 -8z m-146 0 c-1 -15 -24 -12 -29
3 -3 9 2 13 12 10 10 -1 17 -7 17 -13z m-611 -34 c0 -11 -25 -21 -53 -21 -21
1 -21 1 3 15 29 16 50 19 50 6z m800 -1 c13 -8 13 -10 -2 -10 -9 0 -20 5 -23
10 -8 13 5 13 25 0z m260 -36 c0 -8 -5 -12 -10 -9 -6 4 -8 11 -5 16 9 14 15
11 15 -7z m30 -89 c0 -8 -2 -15 -4 -15 -2 0 -6 7 -10 15 -3 8 -1 15 4 15 6 0
10 -7 10 -15z m-270 -116 c0 -5 -7 -9 -15 -9 -8 0 -15 7 -15 15 0 9 6 12 15 9
8 -4 15 -10 15 -15z m60 -15 c0 -8 -7 -14 -15 -14 -17 0 -18 2 -9 24 7 18 24
12 24 -10z"/>
<path d="M5677 3385 c-13 -9 -17 -20 -12 -34 8 -25 28 -27 50 -4 16 15 16 18
1 28 -9 7 -13 15 -9 18 12 13 -12 6 -30 -8z"/>
<path d="M6518 3393 c7 -3 16 -2 19 1 4 3 -2 6 -13 5 -11 0 -14 -3 -6 -6z"/>
<path d="M2998 3383 c7 -3 16 -2 19 1 4 3 -2 6 -13 5 -11 0 -14 -3 -6 -6z"/>
<path d="M5790 3335 c-8 -9 -8 -15 -2 -15 12 0 26 19 19 26 -2 2 -10 -2 -17
-11z"/>
<path d="M5730 3310 c0 -5 5 -10 10 -10 6 0 10 5 10 10 0 6 -4 10 -10 10 -5 0
-10 -4 -10 -10z"/>
<path d="M5815 3290 c-3 -6 1 -7 9 -4 18 7 21 14 7 14 -6 0 -13 -4 -16 -10z"/>
<path d="M5870 3280 c0 -5 7 -10 15 -10 8 0 15 5 15 10 0 6 -7 10 -15 10 -8 0
-15 -4 -15 -10z"/>
<path d="M4385 3262 c-15 -11 -18 -35 -3 -28 7 3 21 9 31 12 9 4 17 10 17 15
0 11 -31 12 -45 1z"/>
<path d="M6347 3254 c-11 -11 5 -34 24 -34 22 0 24 11 7 28 -13 13 -22 15 -31
6z"/>
<path d="M4410 3230 c0 -5 7 -7 15 -4 8 4 15 8 15 10 0 2 -7 4 -15 4 -8 0 -15
-4 -15 -10z"/>
<path d="M5881 3134 c0 -11 3 -14 6 -6 3 7 2 16 -1 19 -3 4 -6 -2 -5 -13z"/>
<path d="M6145 3111 c3 -5 -2 -16 -10 -24 -21 -22 -19 -29 4 -15 25 15 35 48
14 48 -8 0 -12 -4 -8 -9z"/>
<path d="M5910 3096 c0 -15 37 -32 47 -22 4 3 1 6 -5 6 -7 0 -12 7 -12 15 0 8
-7 15 -15 15 -8 0 -15 -6 -15 -14z"/>
<path d="M5420 3020 c0 -5 5 -10 10 -10 6 0 10 5 10 10 0 6 -4 10 -10 10 -5 0
-10 -4 -10 -10z"/>
<path d="M5745 2980 c3 -5 8 -10 11 -10 2 0 4 5 4 10 0 6 -5 10 -11 10 -5 0
-7 -4 -4 -10z"/>
<path d="M5653 2950 c29 -23 87 -31 87 -13 0 7 -8 13 -18 13 -10 0 -22 3 -25
6 -4 4 -20 8 -37 9 l-30 3 23 -18z"/>
<path d="M5267 2954 c-9 -9 4 -34 18 -34 8 0 11 8 8 20 -5 20 -15 25 -26 14z"/>
<path d="M5210 2925 c0 -8 5 -15 10 -15 6 0 10 7 10 15 0 8 -4 15 -10 15 -5 0
-10 -7 -10 -15z"/>
<path d="M5130 2920 c0 -5 9 -14 20 -20 22 -12 27 -1 8 18 -14 14 -28 16 -28
2z"/>
<path d="M3974 2724 c-5 -19 -9 -22 -15 -12 -6 8 -9 1 -9 -23 0 -20 -7 -42
-14 -49 -8 -6 -22 -35 -30 -63 -13 -45 -13 -53 -1 -60 11 -6 13 -13 5 -27 -12
-23 -12 -31 -1 -49 7 -11 14 -10 40 8 17 12 30 25 30 29 -3 23 17 52 44 64 18
7 36 12 40 10 4 -1 10 5 13 13 8 19 44 20 44 0 0 -24 14 -17 34 16 11 18 14
29 8 25 -6 -3 -12 0 -15 6 -5 18 34 52 43 37 4 -6 10 -2 13 12 4 16 -2 32 -21
55 -32 39 -37 40 -63 15 -13 -12 -31 -17 -54 -15 -28 2 -35 -1 -35 -16 0 -19
-23 -43 -33 -34 -3 3 -4 24 -1 45 5 44 -12 54 -22 13z"/>
<path d="M4152 2525 c-8 -16 -7 -24 5 -37 11 -12 12 -18 4 -18 -7 0 -9 -4 -6
-10 10 -16 23 -12 36 12 9 17 9 24 -3 32 -8 6 -17 18 -20 26 -3 11 -7 10 -16
-5z"/>
<path d="M4226 2492 c-2 -4 -1 -14 5 -22 7 -12 9 -10 9 8 0 23 -5 28 -14 14z"/>
<path d="M3276 2301 c-4 -7 -5 -15 -2 -18 9 -9 19 4 14 18 -4 11 -6 11 -12 0z"/>
<path d="M3605 2109 c-22 -3 -52 -11 -66 -17 -15 -6 -30 -8 -33 -5 -3 4 -6 1
-6 -6 0 -8 -8 -11 -19 -8 -14 3 -21 -2 -25 -19 -5 -17 -11 -22 -24 -17 -9 4
-20 11 -24 17 -4 6 -8 0 -8 -14 0 -34 -11 -46 -37 -46 -24 0 -30 10 -13 21 6
4 1 15 -14 26 -30 24 -27 24 -60 -5 -37 -31 -41 -88 -9 -116 44 -38 93 -51
172 -46 79 6 120 24 122 56 1 11 2 23 4 28 19 69 25 75 61 62 13 -5 24 -21 27
-39 l6 -31 62 7 c56 6 60 5 57 -13 -2 -14 4 -20 25 -22 24 -3 26 -6 16 -18
-17 -20 0 -35 40 -36 40 -1 42 -29 5 -61 -15 -12 -32 -28 -40 -34 -7 -7 -20
-13 -29 -13 -13 0 -14 4 -4 22 9 17 9 24 -5 33 -10 8 -14 19 -10 30 5 13 2 16
-12 13 -22 -4 -25 -30 -9 -73 7 -16 10 -42 9 -57 -2 -16 2 -28 7 -28 6 0 8 4
5 9 -9 15 49 30 92 24 23 -3 49 0 63 8 13 7 26 13 29 14 9 0 47 42 53 59 4 9
12 16 19 15 23 -4 95 21 120 41 l23 19 -25 18 c-14 10 -28 18 -32 18 -3 0 -10
3 -14 8 -4 4 -16 7 -26 7 -10 0 -23 11 -29 24 -7 14 -23 27 -37 31 -20 5 -30
0 -47 -21 -19 -23 -26 -26 -61 -20 -48 8 -62 28 -65 91 -2 35 -8 49 -23 57
-23 12 -148 16 -211 7z m-285 -109 c0 -5 -4 -10 -9 -10 -6 0 -13 5 -16 10 -3
6 1 10 9 10 9 0 16 -4 16 -10z"/>
<path d="M3580 1861 c0 -12 39 -25 48 -16 7 7 -17 25 -35 25 -7 0 -13 -4 -13
-9z"/>
<path d="M3705 1840 c3 -5 8 -10 11 -10 2 0 4 5 4 10 0 6 -5 10 -11 10 -5 0
-7 -4 -4 -10z"/>
<path d="M3240 1810 c0 -5 5 -10 10 -10 6 0 10 5 10 10 0 6 -4 10 -10 10 -5 0
-10 -4 -10 -10z"/>
<path d="M3490 1756 c0 -2 7 -7 16 -10 8 -3 12 -2 9 4 -6 10 -25 14 -25 6z"/>
<path d="M3649 1718 c-20 -7 -26 -14 -22 -28 3 -11 7 -20 9 -20 15 0 74 31 74
38 0 15 -32 20 -61 10z"/>
</g>
</svg>
